<svg id="svg" version="1.1" xmlns="http://www.w3.org/2000/svg" xmlns:xlink="http://www.w3.org/1999/xlink" width="400" height="400" viewBox="0, 0, 400,400"><g id="svgg"><path id="path0" d="M131.651 0.272 C 131.129 0.380,130.089 0.813,129.339 1.234 C 128.589 1.655,127.621 2.000,127.188 2.000 C 126.755 2.000,126.400 2.180,126.400 2.400 C 126.400 2.620,126.040 2.800,125.600 2.800 C 125.160 2.800,124.800 2.980,124.800 3.200 C 124.800 3.420,124.440 3.600,124.000 3.600 C 123.560 3.600,123.200 3.780,123.200 4.000 C 123.200 4.220,122.761 4.400,122.224 4.400 C 121.687 4.400,121.136 4.580,121.000 4.800 C 120.864 5.020,120.403 5.200,119.976 5.200 C 119.549 5.200,119.200 5.380,119.200 5.600 C 119.200 5.820,118.840 6.000,118.400 6.000 C 117.960 6.000,117.600 6.180,117.600 6.400 C 117.600 6.620,117.240 6.800,116.800 6.800 C 116.360 6.800,116.000 6.980,116.000 7.200 C 116.000 7.420,115.640 7.600,115.200 7.600 C 114.760 7.600,114.400 7.780,114.400 8.000 C 114.400 8.220,114.040 8.400,113.600 8.400 C 113.160 8.400,112.800 8.580,112.800 8.800 C 112.800 9.020,112.440 9.200,112.000 9.200 C 111.560 9.200,111.200 9.360,111.200 9.557 C 111.200 9.753,110.754 10.025,110.208 10.162 C 109.663 10.299,108.305 10.949,107.191 11.606 C 106.076 12.263,104.993 12.800,104.782 12.800 C 104.572 12.800,104.400 12.980,104.400 13.200 C 104.400 13.420,104.040 13.600,103.600 13.600 C 103.160 13.600,102.800 13.780,102.800 14.000 C 102.800 14.220,102.564 14.400,102.275 14.400 C 101.987 14.400,101.364 14.760,100.892 15.200 C 100.420 15.640,99.756 16.000,99.417 16.000 C 99.078 16.000,98.800 16.180,98.800 16.400 C 98.800 16.620,98.564 16.800,98.275 16.800 C 97.987 16.800,97.402 17.115,96.975 17.500 C 96.549 17.885,95.705 18.455,95.100 18.768 C 94.495 19.080,94.000 19.485,94.000 19.668 C 94.000 19.850,93.730 20.000,93.400 20.000 C 93.070 20.000,92.800 20.180,92.800 20.400 C 92.800 20.620,92.575 20.800,92.300 20.801 C 92.025 20.801,91.170 21.341,90.400 22.000 C 89.630 22.659,88.815 23.199,88.588 23.199 C 88.362 23.200,87.917 23.560,87.600 24.000 C 87.283 24.440,86.769 24.800,86.459 24.800 C 86.148 24.800,85.603 25.116,85.247 25.503 C 84.891 25.889,84.129 26.447,83.554 26.741 C 82.979 27.036,82.042 27.710,81.472 28.238 C 80.902 28.767,80.312 29.200,80.162 29.200 C 79.871 29.200,77.280 31.404,74.509 34.010 C 73.579 34.885,72.627 35.600,72.392 35.600 C 72.158 35.600,70.541 37.040,68.800 38.800 C 67.059 40.560,65.528 42.000,65.399 42.000 C 65.270 42.000,64.744 42.405,64.232 42.900 C 58.334 48.595,56.950 49.997,56.049 51.191 C 55.472 51.955,53.695 53.893,52.100 55.497 C 50.505 57.101,49.200 58.552,49.200 58.721 C 49.200 58.891,48.435 59.843,47.500 60.837 C 46.565 61.831,45.350 63.234,44.800 63.956 C 44.250 64.678,43.575 65.511,43.300 65.806 C 43.025 66.101,42.800 66.553,42.800 66.811 C 42.800 67.068,42.260 67.783,41.600 68.400 C 40.940 69.017,40.400 69.692,40.400 69.901 C 40.400 70.110,39.860 70.846,39.200 71.537 C 38.540 72.228,38.000 72.983,38.000 73.215 C 38.000 73.447,37.550 74.086,37.000 74.636 C 36.450 75.186,36.000 75.781,36.000 75.957 C 36.000 76.133,35.685 76.650,35.300 77.105 C 34.915 77.560,34.285 78.310,33.900 78.771 C 33.515 79.232,33.200 79.837,33.200 80.116 C 33.200 80.395,32.840 80.883,32.400 81.200 C 31.960 81.517,31.600 82.014,31.600 82.305 C 31.600 82.596,31.240 83.220,30.800 83.692 C 30.360 84.164,30.000 84.787,30.000 85.075 C 30.000 85.364,29.820 85.600,29.600 85.600 C 29.380 85.600,29.200 85.878,29.200 86.217 C 29.200 86.556,28.849 87.210,28.420 87.671 C 27.991 88.131,27.517 89.069,27.366 89.754 C 27.216 90.439,26.757 91.291,26.346 91.647 C 25.936 92.003,25.600 92.588,25.600 92.947 C 25.600 93.306,25.420 93.600,25.200 93.600 C 24.980 93.600,24.800 93.870,24.800 94.200 C 24.800 94.530,24.620 94.800,24.400 94.800 C 24.180 94.800,24.000 95.160,24.000 95.600 C 24.000 96.040,23.820 96.400,23.600 96.400 C 23.380 96.400,23.200 96.760,23.200 97.200 C 23.200 97.640,23.020 98.000,22.800 98.000 C 22.580 98.000,22.400 98.360,22.400 98.800 C 22.400 99.240,22.220 99.600,22.000 99.600 C 21.780 99.600,21.600 99.960,21.600 100.400 C 21.600 100.840,21.420 101.200,21.200 101.200 C 20.980 101.200,20.800 101.560,20.800 102.000 C 20.800 102.440,20.620 102.800,20.400 102.800 C 20.180 102.800,20.000 103.160,20.000 103.600 C 20.000 104.040,19.820 104.400,19.600 104.400 C 19.380 104.400,19.200 104.760,19.200 105.200 C 19.200 105.640,19.020 106.000,18.800 106.000 C 18.580 106.000,18.400 106.360,18.400 106.800 C 18.400 107.240,18.220 107.600,18.000 107.600 C 17.780 107.600,17.600 107.960,17.600 108.400 C 17.600 108.840,17.420 109.200,17.200 109.200 C 16.980 109.200,16.800 109.472,16.800 109.805 C 16.800 110.138,16.643 110.723,16.450 111.105 C 14.886 114.211,14.400 115.379,14.400 116.038 C 14.400 116.457,14.220 116.800,14.000 116.800 C 13.780 116.800,13.600 117.149,13.600 117.576 C 13.600 118.003,13.420 118.464,13.200 118.600 C 12.980 118.736,12.800 119.199,12.800 119.629 C 12.800 120.059,12.641 120.723,12.447 121.105 C 11.328 123.304,10.000 127.259,10.000 128.390 C 10.000 128.810,9.820 129.264,9.600 129.400 C 9.380 129.536,9.200 130.076,9.200 130.600 C 9.200 131.124,9.020 131.664,8.800 131.800 C 8.580 131.936,8.400 132.667,8.400 133.424 C 8.400 134.181,8.220 134.800,8.000 134.800 C 7.780 134.800,7.600 135.340,7.600 136.000 C 7.600 136.660,7.420 137.200,7.200 137.200 C 6.980 137.200,6.800 137.920,6.800 138.800 C 6.800 139.680,6.620 140.400,6.400 140.400 C 6.180 140.400,6.000 141.120,6.000 142.000 C 6.000 142.880,5.820 143.600,5.600 143.600 C 5.380 143.600,5.200 144.129,5.200 144.776 C 5.200 145.423,5.020 146.064,4.800 146.200 C 4.580 146.336,4.400 147.146,4.400 148.000 C 4.400 148.854,4.220 149.664,4.000 149.800 C 3.780 149.936,3.600 150.847,3.600 151.824 C 3.600 152.801,3.420 153.600,3.200 153.600 C 2.980 153.600,2.800 154.489,2.800 155.576 C 2.800 156.663,2.620 157.664,2.400 157.800 C 2.180 157.936,2.000 159.016,2.000 160.200 C 2.000 161.384,1.820 162.464,1.600 162.600 C 1.380 162.736,1.200 164.082,1.200 165.590 C 1.200 167.429,1.035 168.388,0.700 168.500 C -0.032 168.744,-0.032 218.856,0.700 219.100 C 1.035 219.212,1.200 220.171,1.200 222.010 C 1.200 223.518,1.380 224.864,1.600 225.000 C 1.820 225.136,2.000 226.317,2.000 227.624 C 2.000 228.941,2.178 230.000,2.400 230.000 C 2.620 230.000,2.800 230.900,2.800 232.000 C 2.800 233.100,2.980 234.000,3.200 234.000 C 3.420 234.000,3.600 234.799,3.600 235.776 C 3.600 236.753,3.780 237.664,4.000 237.800 C 4.220 237.936,4.400 238.746,4.400 239.600 C 4.400 240.454,4.580 241.264,4.800 241.400 C 5.020 241.536,5.200 242.256,5.200 243.000 C 5.200 243.744,5.380 244.464,5.600 244.600 C 5.820 244.736,6.000 245.377,6.000 246.024 C 6.000 246.671,6.180 247.200,6.400 247.200 C 6.620 247.200,6.800 247.920,6.800 248.800 C 6.800 249.680,6.980 250.400,7.200 250.400 C 7.420 250.400,7.600 250.929,7.600 251.576 C 7.600 252.223,7.780 252.864,8.000 253.000 C 8.220 253.136,8.400 253.766,8.400 254.400 C 8.400 255.034,8.580 255.664,8.800 255.800 C 9.020 255.936,9.200 256.476,9.200 257.000 C 9.200 257.524,9.380 258.064,9.600 258.200 C 9.820 258.336,10.000 258.793,10.000 259.215 C 10.000 260.185,11.946 266.071,12.435 266.580 C 12.636 266.789,12.800 267.363,12.800 267.856 C 12.800 268.349,12.980 268.864,13.200 269.000 C 13.420 269.136,13.600 269.597,13.600 270.024 C 13.600 270.451,13.780 270.800,14.000 270.800 C 14.220 270.800,14.400 271.250,14.400 271.800 C 14.400 272.350,14.580 272.800,14.800 272.800 C 15.020 272.800,15.200 273.036,15.200 273.325 C 15.200 273.614,15.560 274.595,16.000 275.506 C 16.440 276.416,16.800 277.440,16.800 277.781 C 16.800 278.121,16.980 278.400,17.200 278.400 C 17.420 278.400,17.600 278.760,17.600 279.200 C 17.600 279.640,17.780 280.000,18.000 280.000 C 18.220 280.000,18.400 280.360,18.400 280.800 C 18.400 281.240,18.580 281.600,18.800 281.600 C 19.020 281.600,19.200 281.960,19.200 282.400 C 19.200 282.840,19.380 283.200,19.600 283.200 C 19.820 283.200,20.000 283.560,20.000 284.000 C 20.000 284.440,20.180 284.800,20.400 284.800 C 20.620 284.800,20.800 285.160,20.800 285.600 C 20.800 286.040,20.980 286.400,21.200 286.400 C 21.420 286.400,21.600 286.760,21.600 287.200 C 21.600 287.640,21.780 288.000,22.000 288.000 C 22.220 288.000,22.400 288.360,22.400 288.800 C 22.400 289.240,22.580 289.600,22.800 289.600 C 23.020 289.600,23.200 289.960,23.200 290.400 C 23.200 290.840,23.380 291.200,23.600 291.200 C 23.820 291.200,24.000 291.470,24.000 291.800 C 24.000 292.130,24.180 292.400,24.400 292.400 C 24.620 292.400,24.800 292.760,24.800 293.200 C 24.800 293.640,24.980 294.000,25.200 294.000 C 25.420 294.000,25.600 294.320,25.600 294.712 C 25.600 295.103,25.960 295.683,26.400 296.000 C 26.840 296.317,27.200 296.801,27.200 297.075 C 27.200 297.819,28.499 300.400,28.874 300.400 C 29.053 300.400,29.200 300.760,29.200 301.200 C 29.200 301.640,29.358 302.000,29.551 302.000 C 29.745 302.000,30.127 302.540,30.400 303.200 C 30.673 303.860,31.055 304.400,31.249 304.400 C 31.442 304.400,31.600 304.636,31.600 304.925 C 31.600 305.213,31.960 305.836,32.400 306.308 C 32.840 306.780,33.200 307.353,33.200 307.580 C 33.200 307.807,33.560 308.218,34.000 308.493 C 34.440 308.768,34.800 309.269,34.800 309.608 C 34.800 309.946,35.160 310.483,35.600 310.800 C 36.040 311.117,36.400 311.657,36.400 312.000 C 36.400 312.343,36.760 312.883,37.200 313.200 C 37.640 313.517,38.000 313.980,38.000 314.229 C 38.000 314.478,38.540 315.246,39.200 315.937 C 39.860 316.628,40.400 317.348,40.400 317.537 C 40.400 317.726,40.940 318.446,41.600 319.137 C 42.260 319.828,42.800 320.574,42.800 320.796 C 42.800 321.018,42.980 321.200,43.200 321.200 C 43.420 321.200,43.600 321.392,43.600 321.626 C 43.600 322.101,46.156 325.227,48.605 327.748 C 49.488 328.657,50.653 330.030,51.194 330.800 C 52.447 332.583,69.515 349.600,70.051 349.600 C 70.271 349.600,71.329 350.500,72.400 351.600 C 73.471 352.700,74.537 353.600,74.767 353.600 C 74.998 353.600,75.865 354.228,76.693 354.996 C 79.097 357.223,82.149 359.600,82.604 359.600 C 82.835 359.600,83.283 359.960,83.600 360.400 C 83.917 360.840,84.425 361.200,84.728 361.200 C 85.031 361.200,85.783 361.740,86.400 362.400 C 87.017 363.060,87.769 363.600,88.072 363.600 C 88.375 363.600,88.883 363.960,89.200 364.400 C 89.517 364.840,90.057 365.200,90.400 365.200 C 90.743 365.200,91.283 365.560,91.600 366.000 C 91.917 366.440,92.431 366.800,92.741 366.800 C 93.052 366.800,93.597 367.116,93.953 367.503 C 94.309 367.889,95.092 368.458,95.693 368.767 C 96.295 369.075,97.142 369.659,97.577 370.064 C 98.011 370.469,98.644 370.800,98.983 370.800 C 99.322 370.800,99.600 370.945,99.600 371.121 C 99.600 371.298,100.497 371.883,101.594 372.421 C 102.690 372.960,103.590 373.535,103.594 373.700 C 103.597 373.865,103.883 374.000,104.229 374.000 C 104.574 374.000,105.127 374.270,105.457 374.600 C 105.787 374.930,106.404 375.200,106.829 375.200 C 107.253 375.200,107.600 375.380,107.600 375.600 C 107.600 375.820,107.960 376.000,108.400 376.000 C 108.840 376.000,109.200 376.180,109.200 376.400 C 109.200 376.620,109.470 376.800,109.800 376.800 C 110.130 376.800,110.400 376.980,110.400 377.200 C 110.400 377.420,110.760 377.600,111.200 377.600 C 111.640 377.600,112.000 377.780,112.000 378.000 C 112.000 378.220,112.360 378.400,112.800 378.400 C 113.240 378.400,113.600 378.580,113.600 378.800 C 113.600 379.020,113.960 379.200,114.400 379.200 C 114.840 379.200,115.200 379.380,115.200 379.600 C 115.200 379.820,115.560 380.000,116.000 380.000 C 116.440 380.000,116.800 380.180,116.800 380.400 C 116.800 380.620,117.160 380.800,117.600 380.800 C 118.040 380.800,118.400 380.980,118.400 381.200 C 118.400 381.420,118.760 381.600,119.200 381.600 C 119.640 381.600,120.000 381.780,120.000 382.000 C 120.000 382.220,120.349 382.400,120.776 382.400 C 121.203 382.400,121.664 382.580,121.800 382.800 C 121.936 383.020,122.487 383.200,123.024 383.200 C 123.561 383.200,124.000 383.380,124.000 383.600 C 124.000 383.820,124.360 384.000,124.800 384.000 C 125.240 384.000,125.600 384.180,125.600 384.400 C 125.600 384.620,125.949 384.800,126.376 384.800 C 126.803 384.800,127.264 384.980,127.400 385.200 C 127.536 385.420,127.997 385.600,128.424 385.600 C 128.851 385.600,129.200 385.780,129.200 386.000 C 129.200 386.220,129.562 386.400,130.005 386.400 C 130.448 386.400,131.168 386.580,131.605 386.800 C 132.042 387.020,132.758 387.380,133.195 387.600 C 133.632 387.820,134.352 388.000,134.795 388.000 C 135.238 388.000,135.600 388.180,135.600 388.400 C 135.600 388.620,135.962 388.800,136.405 388.800 C 136.848 388.800,137.523 388.971,137.905 389.181 C 139.219 389.902,143.434 391.193,145.316 391.450 C 146.352 391.593,147.200 391.864,147.200 392.054 C 147.200 392.244,147.729 392.400,148.376 392.400 C 149.023 392.400,149.664 392.580,149.800 392.800 C 149.936 393.020,150.667 393.200,151.424 393.200 C 152.181 393.200,152.800 393.380,152.800 393.600 C 152.800 393.820,153.520 394.000,154.400 394.000 C 155.280 394.000,156.000 394.180,156.000 394.400 C 156.000 394.620,156.720 394.800,157.600 394.800 C 158.480 394.800,159.200 394.980,159.200 395.200 C 159.200 395.420,159.909 395.600,160.776 395.600 C 161.643 395.600,162.464 395.780,162.600 396.000 C 162.736 396.220,163.647 396.400,164.624 396.400 C 165.601 396.400,166.400 396.580,166.400 396.800 C 166.400 397.020,167.390 397.200,168.600 397.200 C 169.810 397.200,170.800 397.380,170.800 397.600 C 170.800 397.822,171.867 398.000,173.200 398.000 C 174.533 398.000,175.600 398.178,175.600 398.400 C 175.600 398.631,176.856 398.800,178.567 398.800 C 180.584 398.800,181.587 398.960,181.700 399.300 C 181.943 400.030,230.129 400.030,230.860 399.300 C 231.161 398.999,232.433 398.800,234.056 398.800 C 235.539 398.800,236.864 398.620,237.000 398.400 C 237.136 398.180,238.227 398.000,239.424 398.000 C 240.621 398.000,241.600 397.820,241.600 397.600 C 241.600 397.380,242.579 397.200,243.776 397.200 C 244.973 397.200,246.064 397.020,246.200 396.800 C 246.336 396.580,247.157 396.400,248.024 396.400 C 248.891 396.400,249.600 396.220,249.600 396.000 C 249.600 395.780,250.500 395.600,251.600 395.600 C 252.700 395.600,253.600 395.420,253.600 395.200 C 253.600 394.980,254.230 394.800,255.000 394.800 C 255.770 394.800,256.400 394.620,256.400 394.400 C 256.400 394.180,257.120 394.000,258.000 394.000 C 258.880 394.000,259.600 393.820,259.600 393.600 C 259.600 393.380,260.219 393.200,260.976 393.200 C 261.733 393.200,262.464 393.020,262.600 392.800 C 262.736 392.580,263.377 392.400,264.024 392.400 C 264.671 392.400,265.200 392.241,265.200 392.046 C 265.200 391.851,266.187 391.569,267.394 391.418 C 268.600 391.267,269.691 390.977,269.817 390.772 C 269.944 390.567,270.476 390.400,271.000 390.400 C 271.524 390.400,272.064 390.220,272.200 390.000 C 272.336 389.780,272.876 389.600,273.400 389.600 C 273.924 389.600,274.464 389.420,274.600 389.200 C 274.736 388.980,275.287 388.800,275.824 388.800 C 276.361 388.800,276.800 388.620,276.800 388.400 C 276.800 388.180,277.239 388.000,277.776 388.000 C 278.313 388.000,278.864 387.820,279.000 387.600 C 279.136 387.380,279.597 387.200,280.024 387.200 C 280.451 387.200,280.800 387.020,280.800 386.800 C 280.800 386.580,281.340 386.400,282.000 386.400 C 282.660 386.400,283.200 386.220,283.200 386.000 C 283.200 385.780,283.560 385.600,284.000 385.600 C 284.440 385.600,284.800 385.420,284.800 385.200 C 284.800 384.980,285.239 384.800,285.776 384.800 C 286.313 384.800,286.864 384.620,287.000 384.400 C 287.136 384.180,287.597 384.000,288.024 384.000 C 288.451 384.000,288.800 383.820,288.800 383.600 C 288.800 383.380,289.149 383.200,289.576 383.200 C 290.003 383.200,290.464 383.020,290.600 382.800 C 290.736 382.580,291.197 382.400,291.624 382.400 C 292.051 382.400,292.400 382.220,292.400 382.000 C 292.400 381.780,292.760 381.600,293.200 381.600 C 293.640 381.600,294.000 381.420,294.000 381.200 C 294.000 380.980,294.360 380.800,294.800 380.800 C 295.240 380.800,295.600 380.620,295.600 380.400 C 295.600 380.180,295.960 380.000,296.400 380.000 C 296.840 380.000,297.200 379.820,297.200 379.600 C 297.200 379.380,297.560 379.200,298.000 379.200 C 298.440 379.200,298.800 379.020,298.800 378.800 C 298.800 378.580,299.160 378.400,299.600 378.400 C 300.040 378.400,300.400 378.220,300.400 378.000 C 300.400 377.780,300.760 377.600,301.200 377.600 C 301.640 377.600,302.000 377.420,302.000 377.200 C 302.000 376.980,302.360 376.800,302.800 376.800 C 303.240 376.800,303.600 376.620,303.600 376.400 C 303.600 376.180,303.960 376.000,304.400 376.000 C 304.840 376.000,305.202 375.865,305.204 375.700 C 305.206 375.535,306.016 375.045,307.004 374.610 C 307.992 374.176,308.803 373.726,308.806 373.610 C 308.810 373.495,309.710 372.960,310.806 372.421 C 311.903 371.883,312.800 371.298,312.800 371.121 C 312.800 370.945,313.078 370.800,313.417 370.800 C 313.756 370.800,314.420 370.440,314.892 370.000 C 315.364 369.560,315.987 369.200,316.275 369.200 C 316.564 369.200,316.800 369.020,316.800 368.800 C 316.800 368.580,317.120 368.400,317.512 368.400 C 317.903 368.400,318.483 368.040,318.800 367.600 C 319.117 367.160,319.657 366.800,320.000 366.800 C 320.343 366.800,320.883 366.440,321.200 366.000 C 321.517 365.560,322.007 365.200,322.288 365.200 C 322.570 365.200,322.800 365.020,322.800 364.800 C 322.800 364.580,323.070 364.400,323.400 364.400 C 323.730 364.400,324.000 364.220,324.000 364.000 C 324.000 363.780,324.230 363.600,324.512 363.600 C 324.793 363.600,325.283 363.240,325.600 362.800 C 325.917 362.360,326.380 362.000,326.629 362.000 C 326.878 362.000,327.646 361.460,328.337 360.800 C 329.028 360.140,329.787 359.600,330.025 359.600 C 330.263 359.600,330.708 359.375,331.015 359.100 C 331.887 358.318,332.493 357.853,334.000 356.808 C 334.770 356.275,335.670 355.551,336.000 355.200 C 336.330 354.849,337.230 354.124,338.000 353.588 C 338.770 353.052,339.979 352.070,340.686 351.407 C 341.393 350.743,343.989 348.310,346.454 346.000 C 353.427 339.467,363.600 329.052,363.600 328.447 C 363.600 328.246,364.500 327.162,365.600 326.039 C 366.700 324.915,367.600 323.907,367.600 323.799 C 367.600 323.690,368.320 322.837,369.200 321.903 C 370.080 320.969,370.800 320.060,370.800 319.884 C 370.800 319.708,371.250 319.114,371.800 318.564 C 372.350 318.014,372.800 317.416,372.800 317.236 C 372.800 317.056,373.337 316.299,373.994 315.554 C 374.650 314.809,375.190 313.925,375.194 313.588 C 375.197 313.252,375.560 312.717,376.000 312.400 C 376.440 312.083,376.800 311.543,376.800 311.200 C 376.800 310.857,377.160 310.317,377.600 310.000 C 378.040 309.683,378.400 309.193,378.400 308.912 C 378.400 308.630,378.550 308.400,378.732 308.400 C 378.915 308.400,379.320 307.905,379.632 307.300 C 379.945 306.695,380.515 305.851,380.900 305.425 C 381.285 304.998,381.600 304.496,381.600 304.308 C 381.600 304.120,381.960 303.580,382.400 303.108 C 382.840 302.636,383.200 302.013,383.200 301.725 C 383.200 301.436,383.380 301.200,383.600 301.200 C 383.820 301.200,384.000 300.922,384.000 300.583 C 384.000 300.244,384.360 299.580,384.800 299.108 C 385.240 298.636,385.600 298.013,385.600 297.725 C 385.600 297.436,385.780 297.200,386.000 297.200 C 386.220 297.200,386.400 296.840,386.400 296.400 C 386.400 295.960,386.580 295.600,386.800 295.600 C 387.020 295.600,387.200 295.255,387.200 294.833 C 387.200 294.412,387.350 294.007,387.533 293.933 C 387.820 293.818,388.912 291.979,391.056 288.000 C 391.353 287.450,391.596 286.685,391.598 286.300 C 391.599 285.915,391.780 285.600,392.000 285.600 C 392.220 285.600,392.400 285.240,392.400 284.800 C 392.400 284.360,392.580 284.000,392.800 284.000 C 393.020 284.000,393.200 283.640,393.200 283.200 C 393.200 282.760,393.380 282.400,393.600 282.400 C 393.820 282.400,394.000 282.040,394.000 281.600 C 394.000 281.160,394.180 280.800,394.400 280.800 C 394.620 280.800,394.800 280.451,394.800 280.024 C 394.800 279.597,394.980 279.136,395.200 279.000 C 395.420 278.864,395.600 278.313,395.600 277.776 C 395.600 277.239,395.780 276.800,396.000 276.800 C 396.220 276.800,396.400 276.440,396.400 276.000 C 396.400 275.560,396.580 275.200,396.800 275.200 C 397.020 275.200,397.200 274.840,397.200 274.400 C 397.200 273.960,397.380 273.600,397.600 273.600 C 397.820 273.600,398.000 273.150,398.000 272.600 C 398.000 272.050,398.180 271.600,398.400 271.600 C 398.620 271.600,398.800 271.165,398.800 270.633 C 398.800 270.102,399.025 269.592,399.300 269.500 C 399.666 269.378,399.800 267.943,399.800 264.157 L 399.800 258.980 397.911 257.090 C 396.655 255.834,395.682 255.200,395.011 255.200 C 394.455 255.200,394.000 255.020,394.000 254.800 C 394.000 254.278,389.723 254.278,389.400 254.800 C 389.264 255.020,388.724 255.200,388.200 255.200 C 387.676 255.200,387.136 255.380,387.000 255.600 C 386.864 255.820,386.313 256.000,385.776 256.000 C 385.239 256.000,384.800 256.180,384.800 256.400 C 384.800 256.620,384.260 256.800,383.600 256.800 C 382.940 256.800,382.400 256.980,382.400 257.200 C 382.400 257.420,381.961 257.600,381.424 257.600 C 380.887 257.600,380.336 257.780,380.200 258.000 C 380.064 258.220,379.524 258.400,379.000 258.400 C 378.476 258.400,377.936 258.580,377.800 258.800 C 377.664 259.020,377.124 259.200,376.600 259.200 C 376.076 259.200,375.551 259.356,375.433 259.547 C 375.314 259.738,374.139 260.017,372.821 260.166 C 371.503 260.315,370.318 260.609,370.189 260.818 C 370.059 261.028,369.344 261.200,368.600 261.200 C 367.856 261.200,367.136 261.380,367.000 261.600 C 366.864 261.820,366.144 262.000,365.400 262.000 C 364.656 262.000,363.936 262.180,363.800 262.400 C 363.664 262.620,362.753 262.800,361.776 262.800 C 360.799 262.800,360.000 262.980,360.000 263.200 C 360.000 263.420,359.201 263.600,358.224 263.600 C 357.247 263.600,356.336 263.780,356.200 264.000 C 356.064 264.220,354.984 264.400,353.800 264.400 C 352.616 264.400,351.536 264.580,351.400 264.800 C 351.264 265.020,350.184 265.200,349.000 265.200 C 347.816 265.200,346.736 265.380,346.600 265.600 C 346.464 265.820,344.833 266.000,342.976 266.000 C 340.992 266.000,339.600 266.165,339.600 266.400 C 339.600 266.651,337.075 266.800,332.824 266.800 C 328.737 266.800,325.949 266.959,325.800 267.200 C 325.469 267.735,316.000 267.735,316.000 267.200 C 316.000 266.951,313.741 266.800,310.024 266.800 C 306.471 266.800,303.947 266.638,303.800 266.400 C 303.664 266.180,302.134 266.000,300.400 266.000 C 298.666 266.000,297.136 265.820,297.000 265.600 C 296.864 265.380,295.593 265.200,294.176 265.200 C 292.725 265.200,291.600 265.025,291.600 264.800 C 291.600 264.580,290.621 264.400,289.424 264.400 C 288.227 264.400,287.136 264.220,287.000 264.000 C 286.864 263.780,285.953 263.600,284.976 263.600 C 283.999 263.600,283.200 263.420,283.200 263.200 C 283.200 262.980,282.491 262.800,281.624 262.800 C 280.757 262.800,279.948 262.639,279.826 262.442 C 279.705 262.245,278.929 261.990,278.103 261.875 C 277.276 261.760,275.790 261.457,274.800 261.202 C 273.810 260.948,271.965 260.539,270.700 260.293 C 269.435 260.048,268.400 259.702,268.400 259.524 C 268.400 259.346,267.680 259.200,266.800 259.200 C 265.920 259.200,265.200 259.020,265.200 258.800 C 265.200 258.580,264.660 258.400,264.000 258.400 C 263.340 258.400,262.800 258.220,262.800 258.000 C 262.800 257.780,262.361 257.600,261.824 257.600 C 261.287 257.600,260.736 257.420,260.600 257.200 C 260.464 256.980,259.913 256.800,259.376 256.800 C 258.839 256.800,258.400 256.620,258.400 256.400 C 258.400 256.180,257.950 256.000,257.400 256.000 C 256.850 256.000,256.400 255.820,256.400 255.600 C 256.400 255.380,255.950 255.200,255.400 255.200 C 254.850 255.200,254.400 255.020,254.400 254.800 C 254.400 254.580,254.051 254.400,253.624 254.400 C 253.197 254.400,252.736 254.220,252.600 254.000 C 252.464 253.780,251.913 253.600,251.376 253.600 C 250.839 253.600,250.400 253.420,250.400 253.200 C 250.400 252.980,250.051 252.800,249.624 252.800 C 249.197 252.800,248.736 252.620,248.600 252.400 C 248.464 252.180,247.913 252.000,247.376 252.000 C 246.839 252.000,246.400 251.820,246.400 251.600 C 246.400 251.380,246.040 251.200,245.600 251.200 C 245.160 251.200,244.800 251.020,244.800 250.800 C 244.800 250.580,244.440 250.400,244.000 250.400 C 243.560 250.400,243.200 250.220,243.200 250.000 C 243.200 249.780,242.840 249.600,242.400 249.600 C 241.960 249.600,241.600 249.420,241.600 249.200 C 241.600 248.980,241.376 248.800,241.103 248.800 C 240.829 248.800,238.326 247.630,235.541 246.200 C 232.756 244.770,230.229 243.600,229.927 243.600 C 229.624 243.600,229.117 243.240,228.800 242.800 C 228.483 242.360,227.903 242.000,227.512 242.000 C 227.120 242.000,226.800 241.820,226.800 241.600 C 226.800 241.380,226.440 241.200,226.000 241.200 C 225.560 241.200,225.200 241.020,225.200 240.800 C 225.200 240.580,224.930 240.400,224.600 240.400 C 224.270 240.400,224.000 240.250,224.000 240.068 C 224.000 239.885,223.505 239.480,222.900 239.168 C 222.295 238.855,221.451 238.285,221.025 237.900 C 220.598 237.515,220.096 237.200,219.908 237.200 C 219.720 237.200,219.180 236.840,218.708 236.400 C 218.236 235.960,217.613 235.600,217.325 235.600 C 217.036 235.600,216.800 235.420,216.800 235.200 C 216.800 234.980,216.557 234.800,216.259 234.800 C 215.962 234.800,215.154 234.260,214.463 233.600 C 213.772 232.940,212.975 232.400,212.692 232.400 C 212.409 232.400,211.917 232.040,211.600 231.600 C 211.283 231.160,210.827 230.800,210.587 230.800 C 210.347 230.800,209.802 230.480,209.375 230.088 C 208.949 229.696,207.880 228.843,207.000 228.192 C 206.120 227.541,205.109 226.692,204.753 226.304 C 204.397 225.917,203.930 225.600,203.714 225.600 C 203.499 225.600,202.187 224.520,200.800 223.200 C 199.413 221.880,198.113 220.800,197.912 220.800 C 197.403 220.800,179.200 202.528,179.200 202.017 C 179.200 201.787,179.020 201.600,178.800 201.600 C 178.580 201.600,178.400 201.406,178.400 201.169 C 178.400 200.931,177.725 200.076,176.900 199.269 C 176.075 198.461,174.907 197.080,174.304 196.200 C 172.805 194.011,171.603 192.470,170.300 191.066 C 169.695 190.415,169.200 189.678,169.200 189.429 C 169.200 189.180,168.840 188.717,168.400 188.400 C 167.960 188.083,167.600 187.569,167.600 187.259 C 167.600 186.948,167.284 186.403,166.897 186.047 C 166.511 185.691,165.940 184.905,165.630 184.300 C 165.319 183.695,164.915 183.200,164.732 183.200 C 164.550 183.200,164.400 182.930,164.400 182.600 C 164.400 182.270,164.220 182.000,164.000 182.000 C 163.780 182.000,163.600 181.730,163.600 181.400 C 163.600 181.070,163.420 180.800,163.200 180.800 C 162.980 180.800,162.800 180.564,162.800 180.275 C 162.800 179.987,162.440 179.364,162.000 178.892 C 161.560 178.420,161.200 177.886,161.200 177.705 C 161.200 177.524,160.840 177.117,160.400 176.800 C 159.960 176.483,159.600 175.903,159.600 175.512 C 159.600 175.120,159.420 174.800,159.200 174.800 C 158.980 174.800,158.800 174.521,158.800 174.180 C 158.800 173.548,157.695 171.163,157.235 170.800 C 157.095 170.690,156.179 168.980,155.200 167.000 C 154.221 165.020,153.325 163.310,153.210 163.200 C 152.752 162.764,151.200 159.490,151.200 158.962 C 151.200 158.653,151.020 158.400,150.800 158.400 C 150.580 158.400,150.400 158.040,150.400 157.600 C 150.400 157.160,150.220 156.800,150.000 156.800 C 149.780 156.800,149.600 156.440,149.600 156.000 C 149.600 155.560,149.420 155.200,149.200 155.200 C 148.980 155.200,148.800 154.840,148.800 154.400 C 148.800 153.960,148.620 153.600,148.400 153.600 C 148.180 153.600,148.000 153.161,148.000 152.624 C 148.000 152.087,147.820 151.536,147.600 151.400 C 147.380 151.264,147.200 150.803,147.200 150.376 C 147.200 149.949,147.020 149.600,146.800 149.600 C 146.580 149.600,146.400 149.150,146.400 148.600 C 146.400 148.050,146.220 147.600,146.000 147.600 C 145.780 147.600,145.600 147.150,145.600 146.600 C 145.600 146.050,145.420 145.600,145.200 145.600 C 144.980 145.600,144.800 145.150,144.800 144.600 C 144.800 144.050,144.620 143.600,144.400 143.600 C 144.180 143.600,144.000 143.251,144.000 142.824 C 144.000 142.397,143.820 141.936,143.600 141.800 C 143.380 141.664,143.200 141.113,143.200 140.576 C 143.200 140.039,143.020 139.600,142.800 139.600 C 142.580 139.600,142.400 139.060,142.400 138.400 C 142.400 137.740,142.238 137.200,142.039 137.200 C 141.841 137.200,141.553 136.120,141.400 134.799 C 141.247 133.479,140.959 132.298,140.761 132.176 C 140.562 132.053,140.400 131.434,140.400 130.800 C 140.400 130.166,140.220 129.536,140.000 129.400 C 139.780 129.264,139.600 128.634,139.600 128.000 C 139.600 127.366,139.420 126.736,139.200 126.600 C 138.980 126.464,138.800 125.834,138.800 125.200 C 138.800 124.566,138.639 123.948,138.442 123.826 C 138.106 123.618,137.894 122.589,137.347 118.500 C 137.222 117.565,136.958 116.800,136.760 116.800 C 136.562 116.800,136.400 116.001,136.400 115.024 C 136.400 114.047,136.220 113.136,136.000 113.000 C 135.780 112.864,135.600 111.773,135.600 110.576 C 135.600 109.379,135.420 108.400,135.200 108.400 C 134.975 108.400,134.800 107.275,134.800 105.824 C 134.800 104.407,134.620 103.136,134.400 103.000 C 134.180 102.864,134.000 101.334,134.000 99.600 C 134.000 97.866,133.820 96.336,133.600 96.200 C 133.362 96.053,133.200 93.537,133.200 90.000 C 133.200 86.463,133.038 83.947,132.800 83.800 C 132.573 83.660,132.400 81.670,132.400 79.200 C 132.400 76.730,132.573 74.740,132.800 74.600 C 133.042 74.450,133.200 71.596,133.200 67.376 C 133.200 62.992,133.349 60.400,133.600 60.400 C 133.835 60.400,134.000 59.008,134.000 57.024 C 134.000 55.167,134.180 53.536,134.400 53.400 C 134.620 53.264,134.800 52.184,134.800 51.000 C 134.800 49.816,134.980 48.736,135.200 48.600 C 135.420 48.464,135.600 47.384,135.600 46.200 C 135.600 45.016,135.780 43.936,136.000 43.800 C 136.220 43.664,136.400 42.753,136.400 41.776 C 136.400 40.799,136.580 40.000,136.800 40.000 C 137.020 40.000,137.200 39.201,137.200 38.224 C 137.200 37.247,137.380 36.336,137.600 36.200 C 137.820 36.064,138.000 35.344,138.000 34.600 C 138.000 33.856,138.180 33.136,138.400 33.000 C 138.620 32.864,138.800 32.133,138.800 31.376 C 138.800 30.619,138.980 30.000,139.200 30.000 C 139.420 30.000,139.600 29.280,139.600 28.400 C 139.600 27.520,139.780 26.800,140.000 26.800 C 140.220 26.800,140.400 26.271,140.400 25.624 C 140.400 24.977,140.567 24.344,140.772 24.217 C 140.977 24.091,141.267 23.000,141.418 21.794 C 141.569 20.587,141.851 19.600,142.046 19.600 C 142.241 19.600,142.400 19.150,142.400 18.600 C 142.400 18.050,142.580 17.600,142.800 17.600 C 143.020 17.600,143.200 17.060,143.200 16.400 C 143.200 15.740,143.380 15.200,143.600 15.200 C 143.820 15.200,144.000 14.660,144.000 14.000 C 144.000 13.340,144.180 12.800,144.400 12.800 C 144.620 12.800,144.800 12.260,144.800 11.600 C 144.800 10.940,144.980 10.400,145.200 10.400 C 145.420 10.400,145.600 9.601,145.600 8.624 C 145.600 7.647,145.420 6.736,145.200 6.600 C 144.980 6.464,144.800 6.001,144.800 5.571 C 144.800 4.525,144.086 3.345,142.414 1.625 L 141.029 0.200 136.814 0.138 C 134.496 0.104,132.173 0.164,131.651 0.272 M121.600 25.800 C 121.600 26.130,121.420 26.400,121.200 26.400 C 120.980 26.400,120.800 27.030,120.800 27.800 C 120.800 28.570,120.620 29.200,120.400 29.200 C 120.180 29.200,120.000 29.909,120.000 30.776 C 120.000 31.643,119.820 32.464,119.600 32.600 C 119.380 32.736,119.200 33.647,119.200 34.624 C 119.200 35.601,119.020 36.400,118.800 36.400 C 118.580 36.400,118.400 37.300,118.400 38.400 C 118.400 39.500,118.220 40.400,118.000 40.400 C 117.780 40.400,117.600 41.379,117.600 42.576 C 117.600 43.773,117.420 44.864,117.200 45.000 C 116.980 45.136,116.800 46.306,116.800 47.600 C 116.800 48.894,116.620 50.064,116.400 50.200 C 116.180 50.336,116.000 51.776,116.000 53.400 C 116.000 55.024,115.820 56.464,115.600 56.600 C 115.373 56.740,115.200 58.730,115.200 61.200 C 115.200 63.670,115.027 65.660,114.800 65.800 C 114.547 65.957,114.400 70.796,114.400 79.000 C 114.400 87.204,114.547 92.043,114.800 92.200 C 115.027 92.340,115.200 94.330,115.200 96.800 C 115.200 99.270,115.373 101.260,115.600 101.400 C 115.820 101.536,116.000 102.886,116.000 104.400 C 116.000 105.914,116.180 107.264,116.400 107.400 C 116.620 107.536,116.800 108.807,116.800 110.224 C 116.800 111.675,116.975 112.800,117.200 112.800 C 117.420 112.800,117.600 113.689,117.600 114.776 C 117.600 115.863,117.780 116.864,118.000 117.000 C 118.220 117.136,118.400 118.137,118.400 119.224 C 118.400 120.311,118.580 121.200,118.800 121.200 C 119.020 121.200,119.200 121.909,119.200 122.776 C 119.200 123.643,119.361 124.452,119.558 124.574 C 119.755 124.695,120.018 125.471,120.142 126.297 C 120.672 129.807,120.908 130.820,121.244 131.027 C 121.440 131.148,121.600 131.867,121.600 132.624 C 121.600 133.381,121.780 134.000,122.000 134.000 C 122.220 134.000,122.400 134.619,122.400 135.376 C 122.400 136.133,122.580 136.864,122.800 137.000 C 123.020 137.136,123.200 137.777,123.200 138.424 C 123.200 139.071,123.380 139.600,123.600 139.600 C 123.820 139.600,124.000 140.050,124.000 140.600 C 124.000 141.150,124.180 141.600,124.400 141.600 C 124.620 141.600,124.800 142.140,124.800 142.800 C 124.800 143.460,124.980 144.000,125.200 144.000 C 125.420 144.000,125.600 144.540,125.600 145.200 C 125.600 145.860,125.780 146.400,126.000 146.400 C 126.220 146.400,126.400 146.940,126.400 147.600 C 126.400 148.260,126.580 148.800,126.800 148.800 C 127.020 148.800,127.201 149.295,127.202 149.900 C 127.204 150.505,127.474 151.516,127.802 152.146 C 128.131 152.776,128.400 153.535,128.400 153.834 C 128.400 154.132,128.760 155.017,129.200 155.800 C 129.640 156.583,130.000 157.579,130.000 158.012 C 130.000 158.445,130.180 158.800,130.400 158.800 C 130.620 158.800,130.800 159.160,130.800 159.600 C 130.800 160.040,130.980 160.400,131.200 160.400 C 131.420 160.400,131.600 160.672,131.600 161.005 C 131.600 161.338,131.780 161.968,132.000 162.405 C 132.220 162.842,132.580 163.558,132.800 163.995 C 133.020 164.432,133.200 165.062,133.200 165.395 C 133.200 165.728,133.380 166.000,133.600 166.000 C 133.820 166.000,134.000 166.360,134.000 166.800 C 134.000 167.240,134.180 167.600,134.400 167.600 C 134.620 167.600,134.800 167.960,134.800 168.400 C 134.800 168.840,134.980 169.200,135.200 169.200 C 135.420 169.200,135.600 169.560,135.600 170.000 C 135.600 170.440,135.780 170.800,136.000 170.800 C 136.220 170.800,136.400 171.160,136.400 171.600 C 136.400 172.040,136.546 172.400,136.725 172.400 C 136.904 172.400,137.298 173.030,137.600 173.800 C 137.902 174.570,138.296 175.200,138.475 175.200 C 138.654 175.200,138.800 175.560,138.800 176.000 C 138.800 176.440,138.980 176.800,139.200 176.800 C 139.420 176.800,139.600 177.120,139.600 177.512 C 139.600 177.903,139.960 178.483,140.400 178.800 C 140.840 179.117,141.200 179.697,141.200 180.088 C 141.200 180.480,141.380 180.800,141.600 180.800 C 141.820 180.800,142.000 181.160,142.000 181.600 C 142.000 182.040,142.180 182.400,142.400 182.400 C 142.620 182.400,142.800 182.760,142.800 183.200 C 142.800 183.640,142.968 184.000,143.173 184.000 C 143.378 184.000,143.673 184.405,143.828 184.900 C 143.983 185.395,144.625 186.552,145.255 187.472 C 145.885 188.392,146.400 189.337,146.400 189.572 C 146.400 189.807,146.550 190.000,146.732 190.000 C 146.915 190.000,147.319 190.495,147.630 191.100 C 147.940 191.705,148.511 192.491,148.897 192.847 C 149.284 193.203,149.600 193.748,149.600 194.059 C 149.600 194.369,149.960 194.883,150.400 195.200 C 150.840 195.517,151.200 196.057,151.200 196.400 C 151.200 196.743,151.560 197.283,152.000 197.600 C 152.440 197.917,152.800 198.380,152.800 198.629 C 152.800 198.878,153.340 199.646,154.000 200.337 C 154.660 201.028,155.200 201.748,155.200 201.937 C 155.200 202.126,155.740 202.846,156.400 203.537 C 157.060 204.228,157.600 204.897,157.600 205.025 C 157.600 205.153,157.825 205.494,158.100 205.784 C 158.727 206.444,159.474 207.380,160.992 209.408 C 161.648 210.284,162.773 211.591,163.492 212.313 C 164.212 213.036,164.800 213.780,164.800 213.967 C 164.800 214.155,167.050 216.596,169.800 219.392 C 172.550 222.188,174.800 224.639,174.800 224.838 C 174.800 225.037,174.997 225.200,175.238 225.200 C 175.478 225.200,178.009 227.540,180.860 230.400 C 183.712 233.260,186.220 235.600,186.433 235.600 C 186.646 235.600,187.631 236.410,188.621 237.400 C 189.611 238.390,190.577 239.200,190.768 239.200 C 190.959 239.200,191.695 239.718,192.404 240.351 C 194.428 242.159,194.744 242.400,195.095 242.400 C 195.276 242.400,195.683 242.760,196.000 243.200 C 196.317 243.640,196.807 244.000,197.088 244.000 C 197.370 244.000,197.600 244.180,197.600 244.400 C 197.600 244.620,197.830 244.800,198.112 244.800 C 198.393 244.800,198.883 245.160,199.200 245.600 C 199.517 246.040,200.007 246.400,200.288 246.400 C 200.570 246.400,200.800 246.580,200.800 246.800 C 200.800 247.020,201.070 247.200,201.400 247.200 C 201.730 247.200,202.000 247.350,202.000 247.532 C 202.000 247.715,202.495 248.119,203.100 248.430 C 203.705 248.740,204.491 249.311,204.847 249.697 C 205.203 250.084,205.748 250.400,206.059 250.400 C 206.369 250.400,206.883 250.760,207.200 251.200 C 207.517 251.640,208.057 252.000,208.400 252.000 C 208.743 252.000,209.283 252.360,209.600 252.800 C 209.917 253.240,210.329 253.600,210.516 253.600 C 210.703 253.600,211.641 254.140,212.600 254.800 C 213.559 255.460,214.459 256.000,214.600 256.000 C 214.741 256.000,215.626 256.530,216.567 257.177 C 217.507 257.824,218.794 258.484,219.425 258.642 C 220.057 258.801,220.928 259.261,221.362 259.665 C 221.796 260.069,222.387 260.400,222.675 260.400 C 222.964 260.400,223.200 260.580,223.200 260.800 C 223.200 261.020,223.560 261.200,224.000 261.200 C 224.440 261.200,224.800 261.380,224.800 261.600 C 224.800 261.820,225.160 262.000,225.600 262.000 C 226.040 262.000,226.400 262.146,226.400 262.325 C 226.400 262.504,227.030 262.898,227.800 263.200 C 228.570 263.502,229.200 263.896,229.200 264.075 C 229.200 264.254,229.560 264.400,230.000 264.400 C 230.440 264.400,230.800 264.580,230.800 264.800 C 230.800 265.020,231.160 265.200,231.600 265.200 C 232.040 265.200,232.400 265.380,232.400 265.600 C 232.400 265.820,232.665 266.000,232.988 266.000 C 233.311 266.000,234.217 266.360,235.000 266.800 C 235.783 267.240,236.779 267.600,237.212 267.600 C 237.645 267.600,238.000 267.780,238.000 268.000 C 238.000 268.220,238.360 268.400,238.800 268.400 C 239.240 268.400,239.600 268.580,239.600 268.800 C 239.600 269.020,239.949 269.200,240.376 269.200 C 240.803 269.200,241.264 269.380,241.400 269.600 C 241.536 269.820,242.087 270.000,242.624 270.000 C 243.161 270.000,243.600 270.180,243.600 270.400 C 243.600 270.620,243.960 270.800,244.400 270.800 C 244.840 270.800,245.200 270.980,245.200 271.200 C 245.200 271.420,245.562 271.600,246.005 271.600 C 246.448 271.600,247.123 271.759,247.505 271.953 C 248.674 272.548,250.123 273.123,251.800 273.657 C 252.680 273.937,253.584 274.298,253.810 274.458 C 254.035 274.618,255.160 274.873,256.310 275.026 C 257.459 275.178,258.400 275.460,258.400 275.652 C 258.400 275.843,258.940 276.000,259.600 276.000 C 260.260 276.000,260.800 276.180,260.800 276.400 C 260.800 276.620,261.430 276.800,262.200 276.800 C 262.970 276.800,263.600 276.980,263.600 277.200 C 263.600 277.420,264.129 277.600,264.776 277.600 C 265.423 277.600,266.064 277.780,266.200 278.000 C 266.336 278.220,267.067 278.400,267.824 278.400 C 268.581 278.400,269.200 278.580,269.200 278.800 C 269.200 279.020,269.920 279.200,270.800 279.200 C 271.680 279.200,272.400 279.380,272.400 279.600 C 272.400 279.820,273.120 280.000,274.000 280.000 C 274.880 280.000,275.600 280.180,275.600 280.400 C 275.600 280.620,276.410 280.800,277.400 280.800 C 278.390 280.800,279.200 280.980,279.200 281.200 C 279.200 281.420,280.100 281.600,281.200 281.600 C 282.300 281.600,283.200 281.780,283.200 282.000 C 283.200 282.222,284.267 282.400,285.600 282.400 C 286.933 282.400,288.000 282.578,288.000 282.800 C 288.000 283.022,289.059 283.200,290.376 283.200 C 291.683 283.200,292.864 283.380,293.000 283.600 C 293.136 283.820,294.576 284.000,296.200 284.000 C 297.824 284.000,299.264 284.180,299.400 284.400 C 299.542 284.631,301.671 284.800,304.424 284.800 C 307.341 284.800,309.200 284.956,309.200 285.200 C 309.200 285.748,333.462 285.748,333.800 285.200 C 333.942 284.970,336.063 284.800,338.800 284.800 C 341.537 284.800,343.658 284.630,343.800 284.400 C 343.936 284.180,345.477 284.000,347.224 284.000 C 349.075 284.000,350.400 283.833,350.400 283.600 C 350.400 283.374,351.533 283.200,353.000 283.200 C 354.467 283.200,355.600 283.026,355.600 282.800 C 355.600 282.580,356.500 282.400,357.600 282.400 C 358.700 282.400,359.600 282.220,359.600 282.000 C 359.600 281.780,360.579 281.600,361.776 281.600 C 362.973 281.600,364.064 281.420,364.200 281.200 C 364.336 280.980,365.157 280.800,366.024 280.800 C 366.891 280.800,367.600 280.620,367.600 280.400 C 367.600 280.180,368.309 280.000,369.176 280.000 C 370.043 280.000,370.864 279.820,371.000 279.600 C 371.136 279.380,371.867 279.200,372.624 279.200 C 373.381 279.200,374.000 279.020,374.000 278.800 C 374.000 278.580,374.180 278.400,374.400 278.400 C 374.620 278.400,374.800 278.760,374.800 279.200 C 374.800 279.640,374.654 280.000,374.475 280.000 C 374.296 280.000,373.902 280.630,373.600 281.400 C 373.298 282.170,372.904 282.800,372.725 282.800 C 372.546 282.800,372.400 283.070,372.400 283.400 C 372.400 283.730,372.220 284.000,372.000 284.000 C 371.780 284.000,371.600 284.360,371.600 284.800 C 371.600 285.240,371.420 285.600,371.200 285.600 C 370.980 285.600,370.800 285.960,370.800 286.400 C 370.800 286.840,370.620 287.200,370.400 287.200 C 370.180 287.200,370.000 287.436,370.000 287.725 C 370.000 288.013,369.640 288.636,369.200 289.108 C 368.760 289.580,368.400 290.244,368.400 290.583 C 368.400 290.922,368.242 291.200,368.049 291.200 C 367.855 291.200,367.473 291.740,367.200 292.400 C 366.927 293.060,366.545 293.600,366.351 293.600 C 366.158 293.600,366.000 293.836,366.000 294.125 C 366.000 294.413,365.640 295.036,365.200 295.508 C 364.760 295.980,364.400 296.554,364.400 296.783 C 364.400 297.012,364.250 297.200,364.068 297.200 C 363.885 297.200,363.485 297.695,363.178 298.300 C 362.872 298.905,362.346 299.784,362.011 300.254 C 361.675 300.723,361.130 301.510,360.800 302.003 C 360.470 302.495,359.975 303.133,359.700 303.420 C 359.425 303.708,359.200 304.137,359.200 304.375 C 359.200 304.613,358.660 305.372,358.000 306.063 C 357.340 306.754,356.800 307.490,356.800 307.699 C 356.800 307.908,356.260 308.583,355.600 309.200 C 354.940 309.817,354.400 310.447,354.400 310.600 C 354.400 310.753,353.898 311.356,353.285 311.940 C 352.671 312.523,351.728 313.630,351.189 314.400 C 350.650 315.170,349.307 316.733,348.205 317.873 C 345.453 320.718,343.600 322.906,343.600 323.312 C 343.600 323.808,339.409 327.711,334.203 332.064 C 333.324 332.799,331.761 334.255,330.729 335.300 C 329.696 336.345,328.739 337.200,328.600 337.200 C 328.461 337.200,327.471 338.100,326.400 339.200 C 325.329 340.300,324.242 341.200,323.986 341.200 C 323.730 341.200,323.017 341.740,322.400 342.400 C 321.783 343.060,321.036 343.603,320.740 343.606 C 320.443 343.610,319.591 344.150,318.846 344.806 C 318.101 345.463,317.344 346.000,317.164 346.000 C 316.984 346.000,316.423 346.405,315.918 346.900 C 315.413 347.395,314.505 348.055,313.900 348.368 C 313.295 348.680,312.800 349.085,312.800 349.268 C 312.800 349.450,312.530 349.600,312.200 349.600 C 311.870 349.600,311.600 349.780,311.600 350.000 C 311.600 350.220,311.330 350.400,311.000 350.400 C 310.670 350.400,310.400 350.580,310.400 350.800 C 310.400 351.020,310.170 351.200,309.888 351.200 C 309.607 351.200,309.117 351.560,308.800 352.000 C 308.483 352.440,307.986 352.800,307.695 352.800 C 307.404 352.800,306.780 353.160,306.308 353.600 C 305.836 354.040,305.213 354.400,304.925 354.400 C 304.636 354.400,304.400 354.580,304.400 354.800 C 304.400 355.020,304.122 355.200,303.783 355.200 C 303.444 355.200,302.780 355.560,302.308 356.000 C 301.836 356.440,301.213 356.800,300.925 356.800 C 300.636 356.800,300.400 356.980,300.400 357.200 C 300.400 357.420,300.040 357.600,299.600 357.600 C 299.160 357.600,298.800 357.780,298.800 358.000 C 298.800 358.220,298.440 358.400,298.000 358.400 C 297.560 358.400,297.200 358.580,297.200 358.800 C 297.200 359.020,296.930 359.200,296.600 359.200 C 296.270 359.200,296.000 359.366,296.000 359.568 C 296.000 359.771,295.460 360.055,294.800 360.200 C 294.140 360.345,293.600 360.629,293.600 360.832 C 293.600 361.034,293.240 361.200,292.800 361.200 C 292.360 361.200,292.000 361.380,292.000 361.600 C 292.000 361.820,291.640 362.000,291.200 362.000 C 290.760 362.000,290.400 362.180,290.400 362.400 C 290.400 362.620,290.040 362.800,289.600 362.800 C 289.160 362.800,288.800 362.980,288.800 363.200 C 288.800 363.420,288.440 363.600,288.000 363.600 C 287.560 363.600,287.200 363.780,287.200 364.000 C 287.200 364.220,286.947 364.400,286.638 364.400 C 286.153 364.400,284.880 364.952,281.905 366.450 C 281.523 366.643,280.938 366.800,280.605 366.800 C 280.272 366.800,280.000 366.980,280.000 367.200 C 280.000 367.420,279.651 367.600,279.224 367.600 C 278.797 367.600,278.336 367.780,278.200 368.000 C 278.064 368.220,277.603 368.400,277.176 368.400 C 276.749 368.400,276.400 368.547,276.400 368.728 C 276.400 368.908,275.500 369.300,274.400 369.600 C 273.300 369.900,272.400 370.292,272.400 370.472 C 272.400 370.653,271.860 370.800,271.200 370.800 C 270.540 370.800,270.000 370.980,270.000 371.200 C 270.000 371.420,269.638 371.600,269.195 371.600 C 268.752 371.600,268.032 371.780,267.595 372.000 C 267.158 372.220,266.442 372.580,266.005 372.800 C 265.568 373.020,264.859 373.200,264.429 373.200 C 263.999 373.200,263.536 373.380,263.400 373.600 C 263.264 373.820,262.623 374.000,261.976 374.000 C 261.329 374.000,260.800 374.180,260.800 374.400 C 260.800 374.620,260.260 374.800,259.600 374.800 C 258.940 374.800,258.400 374.980,258.400 375.200 C 258.400 375.420,257.781 375.600,257.024 375.600 C 256.267 375.600,255.536 375.780,255.400 376.000 C 255.264 376.220,254.623 376.400,253.976 376.400 C 253.329 376.400,252.800 376.548,252.800 376.728 C 252.800 376.909,251.405 377.258,249.700 377.505 C 247.995 377.752,245.610 378.155,244.400 378.400 C 243.190 378.646,241.390 378.944,240.400 379.062 C 239.410 379.181,238.429 379.440,238.220 379.639 C 238.011 379.837,236.922 380.000,235.800 380.000 C 234.678 380.000,233.589 380.165,233.380 380.368 C 232.982 380.753,229.986 381.081,223.600 381.440 C 221.510 381.557,219.629 381.821,219.420 382.027 C 218.889 382.549,193.200 382.523,193.200 382.000 C 193.200 381.759,191.560 381.600,189.080 381.600 C 186.814 381.600,184.789 381.435,184.580 381.232 C 184.371 381.030,183.030 380.771,181.600 380.657 C 180.170 380.542,177.830 380.251,176.400 380.009 C 174.970 379.768,172.990 379.470,172.000 379.346 C 171.010 379.223,170.029 378.960,169.820 378.761 C 169.611 378.563,168.767 378.400,167.944 378.400 C 167.121 378.400,166.348 378.239,166.226 378.042 C 166.104 377.845,164.563 377.556,162.802 377.400 C 161.041 377.244,159.600 376.955,159.600 376.758 C 159.600 376.561,159.071 376.400,158.424 376.400 C 157.777 376.400,157.136 376.220,157.000 376.000 C 156.864 375.780,156.223 375.600,155.576 375.600 C 154.929 375.600,154.400 375.420,154.400 375.200 C 154.400 374.980,153.680 374.800,152.800 374.800 C 151.920 374.800,151.200 374.620,151.200 374.400 C 151.200 374.180,150.660 374.000,150.000 374.000 C 149.340 374.000,148.800 373.820,148.800 373.600 C 148.800 373.380,148.260 373.200,147.600 373.200 C 146.940 373.200,146.400 373.020,146.400 372.800 C 146.400 372.580,145.860 372.400,145.200 372.400 C 144.540 372.400,144.000 372.220,144.000 372.000 C 144.000 371.780,143.460 371.600,142.800 371.600 C 142.140 371.600,141.600 371.420,141.600 371.200 C 141.600 370.980,141.240 370.800,140.800 370.800 C 140.360 370.800,140.000 370.620,140.000 370.400 C 140.000 370.180,139.550 370.000,139.000 370.000 C 138.450 370.000,138.000 369.820,138.000 369.600 C 138.000 369.380,137.651 369.200,137.224 369.200 C 136.797 369.200,136.336 369.020,136.200 368.800 C 136.064 368.580,135.513 368.400,134.976 368.400 C 134.439 368.400,134.000 368.220,134.000 368.000 C 134.000 367.780,133.640 367.600,133.200 367.600 C 132.760 367.600,132.400 367.420,132.400 367.200 C 132.400 366.980,132.128 366.800,131.795 366.800 C 131.207 366.800,130.782 366.633,128.905 365.662 C 128.413 365.408,127.738 365.200,127.405 365.200 C 127.072 365.200,126.800 365.020,126.800 364.800 C 126.800 364.580,126.455 364.400,126.033 364.400 C 125.612 364.400,125.207 364.259,125.133 364.087 C 124.961 363.682,117.507 360.000,116.859 360.000 C 116.588 360.000,115.980 359.640,115.508 359.200 C 115.036 358.760,114.413 358.400,114.125 358.400 C 113.836 358.400,113.600 358.220,113.600 358.000 C 113.600 357.780,113.240 357.600,112.800 357.600 C 112.360 357.600,112.000 357.420,112.000 357.200 C 112.000 356.980,111.706 356.800,111.347 356.800 C 110.988 356.800,110.403 356.484,110.047 356.097 C 109.691 355.711,108.860 355.127,108.200 354.800 C 107.540 354.473,106.709 353.889,106.353 353.503 C 105.997 353.116,105.412 352.800,105.053 352.800 C 104.694 352.800,104.400 352.650,104.400 352.468 C 104.400 352.285,103.905 351.880,103.300 351.568 C 102.695 351.255,101.851 350.685,101.425 350.300 C 100.998 349.915,100.453 349.600,100.213 349.600 C 99.973 349.600,99.517 349.240,99.200 348.800 C 98.883 348.360,98.438 348.000,98.212 348.000 C 97.985 347.999,97.277 347.549,96.638 347.000 C 95.999 346.450,95.348 346.000,95.192 346.000 C 95.036 346.000,94.299 345.463,93.554 344.806 C 92.809 344.150,92.047 343.610,91.860 343.606 C 91.674 343.603,91.017 343.060,90.400 342.400 C 89.783 341.740,89.099 341.200,88.880 341.200 C 88.661 341.200,87.562 340.300,86.439 339.200 C 85.315 338.100,84.235 337.200,84.039 337.200 C 83.843 337.200,82.337 335.895,80.694 334.300 C 76.816 330.536,73.810 327.767,73.137 327.340 C 72.841 327.153,71.880 326.104,71.000 325.008 C 70.120 323.913,68.138 321.753,66.596 320.208 C 65.054 318.664,63.345 316.770,62.798 316.000 C 62.251 315.230,61.128 313.903,60.302 313.052 C 59.476 312.200,58.800 311.364,58.800 311.194 C 58.800 311.024,58.260 310.307,57.600 309.600 C 56.940 308.893,56.400 308.173,56.400 308.000 C 56.400 307.827,55.860 307.107,55.200 306.400 C 54.540 305.693,54.000 304.963,54.000 304.776 C 54.000 304.589,53.550 303.986,53.000 303.436 C 52.450 302.886,52.000 302.198,52.000 301.906 C 52.000 301.615,51.640 301.117,51.200 300.800 C 50.760 300.483,50.400 300.027,50.400 299.787 C 50.400 299.547,50.085 299.002,49.700 298.575 C 49.315 298.149,48.745 297.305,48.432 296.700 C 48.120 296.095,47.715 295.600,47.532 295.600 C 47.350 295.600,47.200 295.332,47.200 295.003 C 47.200 294.675,46.840 294.182,46.400 293.907 C 45.960 293.632,45.600 293.091,45.600 292.704 C 45.600 292.317,45.420 292.000,45.200 292.000 C 44.980 292.000,44.800 291.764,44.800 291.475 C 44.800 291.187,44.440 290.564,44.000 290.092 C 43.560 289.620,43.200 288.956,43.200 288.617 C 43.200 288.278,43.020 288.000,42.800 288.000 C 42.580 288.000,42.400 287.640,42.400 287.200 C 42.400 286.760,42.240 286.400,42.043 286.400 C 41.847 286.400,41.563 285.907,41.412 285.304 C 41.260 284.701,41.011 284.116,40.859 284.004 C 40.706 283.892,39.777 282.180,38.794 280.200 C 37.811 278.220,36.871 276.540,36.704 276.467 C 36.537 276.393,36.400 275.988,36.400 275.567 C 36.400 275.145,36.220 274.800,36.000 274.800 C 35.780 274.800,35.600 274.440,35.600 274.000 C 35.600 273.560,35.420 273.200,35.200 273.200 C 34.980 273.200,34.800 272.840,34.800 272.400 C 34.800 271.960,34.620 271.600,34.400 271.600 C 34.180 271.600,34.000 271.328,34.000 270.995 C 34.000 270.662,33.820 270.032,33.600 269.595 C 33.380 269.158,33.020 268.442,32.800 268.005 C 32.580 267.568,32.400 266.938,32.400 266.605 C 32.400 266.272,32.220 266.000,32.000 266.000 C 31.780 266.000,31.600 265.550,31.600 265.000 C 31.600 264.450,31.420 264.000,31.200 264.000 C 30.980 264.000,30.800 263.651,30.800 263.224 C 30.800 262.797,30.620 262.336,30.400 262.200 C 30.180 262.064,30.000 261.513,30.000 260.976 C 30.000 260.439,29.820 260.000,29.600 260.000 C 29.380 260.000,29.200 259.640,29.200 259.200 C 29.200 258.760,29.020 258.400,28.800 258.400 C 28.580 258.400,28.400 257.860,28.400 257.200 C 28.400 256.540,28.220 256.000,28.000 256.000 C 27.780 256.000,27.600 255.460,27.600 254.800 C 27.600 254.140,27.420 253.600,27.200 253.600 C 26.980 253.600,26.800 253.060,26.800 252.400 C 26.800 251.740,26.620 251.200,26.400 251.200 C 26.180 251.200,26.000 250.660,26.000 250.000 C 26.000 249.340,25.841 248.800,25.647 248.800 C 25.452 248.800,25.168 247.630,25.015 246.200 C 24.862 244.770,24.590 243.600,24.412 243.600 C 24.234 243.600,23.991 243.015,23.873 242.300 C 23.754 241.585,23.450 240.190,23.196 239.200 C 22.943 238.210,22.640 236.724,22.525 235.897 C 22.410 235.071,22.155 234.295,21.958 234.174 C 21.761 234.052,21.600 233.254,21.600 232.400 C 21.600 231.546,21.420 230.736,21.200 230.600 C 20.980 230.464,20.800 229.463,20.800 228.376 C 20.800 227.289,20.620 226.400,20.400 226.400 C 20.178 226.400,20.000 225.333,20.000 224.000 C 20.000 222.667,19.822 221.600,19.600 221.600 C 19.373 221.600,19.200 220.427,19.200 218.880 C 19.200 217.384,19.032 215.989,18.827 215.780 C 17.584 214.512,17.584 173.088,18.827 171.820 C 19.032 171.611,19.200 170.216,19.200 168.720 C 19.200 167.173,19.373 166.000,19.600 166.000 C 19.822 166.000,20.000 164.933,20.000 163.600 C 20.000 162.267,20.178 161.200,20.400 161.200 C 20.620 161.200,20.800 160.311,20.800 159.224 C 20.800 158.137,20.980 157.136,21.200 157.000 C 21.420 156.864,21.600 156.054,21.600 155.200 C 21.600 154.346,21.761 153.548,21.958 153.426 C 22.155 153.305,22.410 152.529,22.525 151.703 C 22.640 150.876,22.941 149.390,23.192 148.400 C 23.443 147.410,23.751 146.060,23.875 145.400 C 23.999 144.740,24.241 144.020,24.412 143.800 C 24.583 143.580,24.851 142.365,25.008 141.100 C 25.164 139.835,25.451 138.800,25.646 138.800 C 25.841 138.800,26.000 138.260,26.000 137.600 C 26.000 136.940,26.180 136.400,26.400 136.400 C 26.620 136.400,26.800 135.860,26.800 135.200 C 26.800 134.540,26.980 134.000,27.200 134.000 C 27.420 134.000,27.600 133.460,27.600 132.800 C 27.600 132.140,27.780 131.600,28.000 131.600 C 28.220 131.600,28.400 131.060,28.400 130.400 C 28.400 129.740,28.580 129.200,28.800 129.200 C 29.020 129.200,29.200 128.840,29.200 128.400 C 29.200 127.960,29.380 127.600,29.600 127.600 C 29.820 127.600,30.000 127.060,30.000 126.400 C 30.000 125.740,30.180 125.200,30.400 125.200 C 30.620 125.200,30.800 124.851,30.800 124.424 C 30.800 123.997,30.980 123.536,31.200 123.400 C 31.420 123.264,31.600 122.803,31.600 122.376 C 31.600 121.949,31.780 121.600,32.000 121.600 C 32.220 121.600,32.400 121.328,32.400 120.995 C 32.400 120.662,32.608 119.987,32.862 119.495 C 33.833 117.618,34.000 117.193,34.000 116.605 C 34.000 116.272,34.180 116.000,34.400 116.000 C 34.620 116.000,34.800 115.640,34.800 115.200 C 34.800 114.760,34.980 114.400,35.200 114.400 C 35.420 114.400,35.600 114.040,35.600 113.600 C 35.600 113.160,35.780 112.800,36.000 112.800 C 36.220 112.800,36.400 112.440,36.400 112.000 C 36.400 111.560,36.580 111.200,36.800 111.200 C 37.020 111.200,37.200 110.840,37.200 110.400 C 37.200 109.960,37.380 109.600,37.600 109.600 C 37.820 109.600,38.000 109.255,38.000 108.833 C 38.000 108.412,38.138 108.007,38.307 107.933 C 38.476 107.860,39.504 106.000,40.591 103.800 C 41.678 101.600,42.710 99.740,42.884 99.667 C 43.058 99.593,43.200 99.271,43.200 98.950 C 43.200 98.629,43.560 97.980,44.000 97.508 C 44.440 97.036,44.800 96.413,44.800 96.125 C 44.800 95.836,44.980 95.600,45.200 95.600 C 45.420 95.600,45.600 95.280,45.600 94.888 C 45.600 94.497,45.960 93.917,46.400 93.600 C 46.840 93.283,47.200 92.780,47.200 92.483 C 47.200 92.186,47.425 91.706,47.700 91.416 C 48.921 90.130,49.600 89.153,49.600 88.684 C 49.600 88.405,49.960 87.917,50.400 87.600 C 50.840 87.283,51.200 86.793,51.200 86.512 C 51.200 86.230,51.380 86.000,51.600 86.000 C 51.820 86.000,52.000 85.730,52.000 85.400 C 52.000 85.070,52.150 84.800,52.332 84.800 C 52.515 84.800,52.920 84.308,53.232 83.707 C 53.545 83.106,54.295 82.089,54.900 81.448 C 55.505 80.806,56.000 80.120,56.000 79.922 C 56.000 79.725,56.419 79.145,56.930 78.634 C 57.442 78.122,58.091 77.146,58.373 76.465 C 58.655 75.784,59.227 75.118,59.643 74.986 C 60.059 74.854,60.400 74.580,60.400 74.378 C 60.400 73.898,61.334 72.764,63.805 70.245 C 64.907 69.120,66.255 67.570,66.800 66.800 C 67.971 65.145,79.082 54.000,79.561 54.000 C 79.742 54.000,81.089 52.830,82.555 51.400 C 84.021 49.970,85.395 48.800,85.610 48.800 C 85.824 48.800,86.000 48.620,86.000 48.400 C 86.000 48.180,86.186 48.000,86.413 48.000 C 86.641 48.000,87.440 47.415,88.190 46.700 C 91.477 43.565,92.841 42.400,93.224 42.400 C 93.449 42.400,93.902 42.175,94.231 41.900 C 94.559 41.625,95.047 41.220,95.314 41.000 C 95.581 40.780,96.295 40.345,96.900 40.032 C 97.505 39.720,98.000 39.315,98.000 39.132 C 98.000 38.950,98.225 38.800,98.500 38.799 C 98.775 38.799,99.630 38.259,100.400 37.600 C 101.170 36.941,102.025 36.401,102.300 36.401 C 102.575 36.400,102.800 36.220,102.800 36.000 C 102.800 35.780,103.070 35.600,103.400 35.600 C 103.730 35.600,104.000 35.420,104.000 35.200 C 104.000 34.980,104.270 34.800,104.600 34.800 C 104.930 34.800,105.200 34.620,105.200 34.400 C 105.200 34.180,105.470 34.000,105.800 34.000 C 106.130 34.000,106.400 33.820,106.400 33.600 C 106.400 33.380,106.670 33.200,107.000 33.200 C 107.330 33.200,107.600 33.020,107.600 32.800 C 107.600 32.580,107.870 32.400,108.200 32.400 C 108.530 32.400,108.800 32.220,108.800 32.000 C 108.800 31.780,109.120 31.600,109.512 31.600 C 109.903 31.600,110.483 31.240,110.800 30.800 C 111.117 30.360,111.697 30.000,112.088 30.000 C 112.480 30.000,112.800 29.820,112.800 29.600 C 112.800 29.380,113.160 29.200,113.600 29.200 C 114.040 29.200,114.400 29.020,114.400 28.800 C 114.400 28.580,114.720 28.400,115.112 28.400 C 115.503 28.400,116.083 28.040,116.400 27.600 C 116.717 27.160,117.297 26.800,117.688 26.800 C 118.080 26.800,118.400 26.620,118.400 26.400 C 118.400 26.180,118.760 26.000,119.200 26.000 C 119.640 26.000,120.000 25.820,120.000 25.600 C 120.000 25.380,120.360 25.200,120.800 25.200 C 121.244 25.200,121.600 25.467,121.600 25.800 " stroke="none" fill="#040404" fill-rule="evenodd"></path><path id="path1" d="" stroke="none" fill="#080404" fill-rule="evenodd"></path><path id="path2" d="" stroke="none" fill="#080404" fill-rule="evenodd"></path><path id="path3" d="" stroke="none" fill="#080404" fill-rule="evenodd"></path><path id="path4" d="" stroke="none" fill="#080404" fill-rule="evenodd"></path></g></svg>