<svg id="svg" version="1.1" xmlns="http://www.w3.org/2000/svg" xmlns:xlink="http://www.w3.org/1999/xlink" width="400" height="400" viewBox="0, 0, 400,400"><g id="svgg"><path id="path0" d="M131.651 0.272 C 131.129 0.380,130.089 0.813,129.339 1.234 C 128.589 1.655,127.621 2.000,127.188 2.000 C 126.755 2.000,126.400 2.180,126.400 2.400 C 126.400 2.620,126.040 2.800,125.600 2.800 C 125.160 2.800,124.800 2.980,124.800 3.200 C 124.800 3.420,124.440 3.600,124.000 3.600 C 123.560 3.600,123.200 3.780,123.200 4.000 C 123.200 4.220,122.761 4.400,122.224 4.400 C 121.687 4.400,121.136 4.580,121.000 4.800 C 120.864 5.020,120.403 5.200,119.976 5.200 C 119.549 5.200,119.200 5.380,119.200 5.600 C 119.200 5.820,118.840 6.000,118.400 6.000 C 117.960 6.000,117.600 6.180,117.600 6.400 C 117.600 6.620,117.240 6.800,116.800 6.800 C 116.360 6.800,116.000 6.980,116.000 7.200 C 116.000 7.420,115.640 7.600,115.200 7.600 C 114.760 7.600,114.400 7.780,114.400 8.000 C 114.400 8.220,114.040 8.400,113.600 8.400 C 113.160 8.400,112.800 8.580,112.800 8.800 C 112.800 9.020,112.440 9.200,112.000 9.200 C 111.560 9.200,111.200 9.360,111.200 9.557 C 111.200 9.753,110.754 10.025,110.208 10.162 C 109.663 10.299,108.305 10.949,107.191 11.606 C 106.076 12.263,104.993 12.800,104.782 12.800 C 104.572 12.800,104.400 12.980,104.400 13.200 C 104.400 13.420,104.040 13.600,103.600 13.600 C 103.160 13.600,102.800 13.780,102.800 14.000 C 102.800 14.220,102.564 14.400,102.275 14.400 C 101.987 14.400,101.364 14.760,100.892 15.200 C 100.420 15.640,99.756 16.000,99.417 16.000 C 99.078 16.000,98.800 16.180,98.800 16.400 C 98.800 16.620,98.564 16.800,98.275 16.800 C 97.987 16.800,97.402 17.115,96.975 17.500 C 96.549 17.885,95.705 18.455,95.100 18.768 C 94.495 19.080,94.000 19.485,94.000 19.668 C 94.000 19.850,93.730 20.000,93.400 20.000 C 93.070 20.000,92.800 20.180,92.800 20.400 C 92.800 20.620,92.575 20.800,92.300 20.801 C 92.025 20.801,91.170 21.341,90.400 22.000 C 89.630 22.659,88.815 23.199,88.588 23.199 C 88.362 23.200,87.917 23.560,87.600 24.000 C 87.283 24.440,86.769 24.800,86.459 24.800 C 86.148 24.800,85.603 25.116,85.247 25.503 C 84.891 25.889,84.129 26.447,83.554 26.741 C 82.979 27.036,82.042 27.710,81.472 28.238 C 80.902 28.767,80.312 29.200,80.162 29.200 C 79.871 29.200,77.280 31.404,74.509 34.010 C 73.579 34.885,72.627 35.600,72.392 35.600 C 72.158 35.600,70.541 37.040,68.800 38.800 C 67.059 40.560,65.528 42.000,65.399 42.000 C 65.270 42.000,64.744 42.405,64.232 42.900 C 58.334 48.595,56.950 49.997,56.049 51.191 C 55.472 51.955,53.695 53.893,52.100 55.497 C 50.505 57.101,49.200 58.552,49.200 58.721 C 49.200 58.891,48.435 59.843,47.500 60.837 C 46.565 61.831,45.350 63.234,44.800 63.956 C 44.250 64.678,43.575 65.511,43.300 65.806 C 43.025 66.101,42.800 66.553,42.800 66.811 C 42.800 67.068,42.260 67.783,41.600 68.400 C 40.940 69.017,40.400 69.692,40.400 69.901 C 40.400 70.110,39.860 70.846,39.200 71.537 C 38.540 72.228,38.000 72.983,38.000 73.215 C 38.000 73.447,37.550 74.086,37.000 74.636 C 36.450 75.186,36.000 75.781,36.000 75.957 C 36.000 76.133,35.685 76.650,35.300 77.105 C 34.915 77.560,34.285 78.310,33.900 78.771 C 33.515 79.232,33.200 79.837,33.200 80.116 C 33.200 80.395,32.840 80.883,32.400 81.200 C 31.960 81.517,31.600 82.014,31.600 82.305 C 31.600 82.596,31.240 83.220,30.800 83.692 C 30.360 84.164,30.000 84.787,30.000 85.075 C 30.000 85.364,29.820 85.600,29.600 85.600 C 29.380 85.600,29.200 85.878,29.200 86.217 C 29.200 86.556,28.849 87.210,28.420 87.671 C 27.991 88.131,27.517 89.069,27.366 89.754 C 27.216 90.439,26.757 91.291,26.346 91.647 C 25.936 92.003,25.600 92.588,25.600 92.947 C 25.600 93.306,25.420 93.600,25.200 93.600 C 24.980 93.600,24.800 93.870,24.800 94.200 C 24.800 94.530,24.620 94.800,24.400 94.800 C 24.180 94.800,24.000 95.160,24.000 95.600 C 24.000 96.040,23.820 96.400,23.600 96.400 C 23.380 96.400,23.200 96.760,23.200 97.200 C 23.200 97.640,23.020 98.000,22.800 98.000 C 22.580 98.000,22.400 98.360,22.400 98.800 C 22.400 99.240,22.220 99.600,22.000 99.600 C 21.780 99.600,21.600 99.960,21.600 100.400 C 21.600 100.840,21.420 101.200,21.200 101.200 C 20.980 101.200,20.800 101.560,20.800 102.000 C 20.800 102.440,20.620 102.800,20.400 102.800 C 20.180 102.800,20.000 103.160,20.000 103.600 C 20.000 104.040,19.820 104.400,19.600 104.400 C 19.380 104.400,19.200 104.760,19.200 105.200 C 19.200 105.640,19.020 106.000,18.800 106.000 C 18.580 106.000,18.400 106.360,18.400 106.800 C 18.400 107.240,18.220 107.600,18.000 107.600 C 17.780 107.600,17.600 107.960,17.600 108.400 C 17.600 108.840,17.420 109.200,17.200 109.200 C 16.980 109.200,16.800 109.472,16.800 109.805 C 16.800 110.138,16.643 110.723,16.450 111.105 C 14.886 114.211,14.400 115.379,14.400 116.038 C 14.400 116.457,14.220 116.800,14.000 116.800 C 13.780 116.800,13.600 117.149,13.600 117.576 C 13.600 118.003,13.420 118.464,13.200 118.600 C 12.980 118.736,12.800 119.199,12.800 119.629 C 12.800 120.059,12.641 120.723,12.447 121.105 C 11.328 123.304,10.000 127.259,10.000 128.390 C 10.000 128.810,9.820 129.264,9.600 129.400 C 9.380 129.536,9.200 130.076,9.200 130.600 C 9.200 131.124,9.020 131.664,8.800 131.800 C 8.580 131.936,8.400 132.667,8.400 133.424 C 8.400 134.181,8.220 134.800,8.000 134.800 C 7.780 134.800,7.600 135.340,7.600 136.000 C 7.600 136.660,7.420 137.200,7.200 137.200 C 6.980 137.200,6.800 137.920,6.800 138.800 C 6.800 139.680,6.620 140.400,6.400 140.400 C 6.180 140.400,6.000 141.120,6.000 142.000 C 6.000 142.880,5.820 143.600,5.600 143.600 C 5.380 143.600,5.200 144.129,5.200 144.776 C 5.200 145.423,5.020 146.064,4.800 146.200 C 4.580 146.336,4.400 147.146,4.400 148.000 C 4.400 148.854,4.220 149.664,4.000 149.800 C 3.780 149.936,3.600 150.847,3.600 151.824 C 3.600 152.801,3.420 153.600,3.200 153.600 C 2.980 153.600,2.800 154.489,2.800 155.576 C 2.800 156.663,2.620 157.664,2.400 157.800 C 2.180 157.936,2.000 159.016,2.000 160.200 C 2.000 161.384,1.820 162.464,1.600 162.600 C 1.380 162.736,1.200 164.082,1.200 165.590 C 1.200 167.429,1.035 168.388,0.700 168.500 C -0.032 168.744,-0.032 218.856,0.700 219.100 C 1.035 219.212,1.200 220.171,1.200 222.010 C 1.200 223.518,1.380 224.864,1.600 225.000 C 1.820 225.136,2.000 226.317,2.000 227.624 C 2.000 228.941,2.178 230.000,2.400 230.000 C 2.620 230.000,2.800 230.900,2.800 232.000 C 2.800 233.100,2.980 234.000,3.200 234.000 C 3.420 234.000,3.600 234.799,3.600 235.776 C 3.600 236.753,3.780 237.664,4.000 237.800 C 4.220 237.936,4.400 238.746,4.400 239.600 C 4.400 240.454,4.580 241.264,4.800 241.400 C 5.020 241.536,5.200 242.256,5.200 243.000 C 5.200 243.744,5.380 244.464,5.600 244.600 C 5.820 244.736,6.000 245.377,6.000 246.024 C 6.000 246.671,6.180 247.200,6.400 247.200 C 6.620 247.200,6.800 247.920,6.800 248.800 C 6.800 249.680,6.980 250.400,7.200 250.400 C 7.420 250.400,7.600 250.929,7.600 251.576 C 7.600 252.223,7.780 252.864,8.000 253.000 C 8.220 253.136,8.400 253.766,8.400 254.400 C 8.400 255.034,8.580 255.664,8.800 255.800 C 9.020 255.936,9.200 256.476,9.200 257.000 C 9.200 257.524,9.380 258.064,9.600 258.200 C 9.820 258.336,10.000 258.793,10.000 259.215 C 10.000 260.185,11.946 266.071,12.435 266.580 C 12.636 266.789,12.800 267.363,12.800 267.856 C 12.800 268.349,12.980 268.864,13.200 269.000 C 13.420 269.136,13.600 269.597,13.600 270.024 C 13.600 270.451,13.780 270.800,14.000 270.800 C 14.220 270.800,14.400 271.250,14.400 271.800 C 14.400 272.350,14.580 272.800,14.800 272.800 C 15.020 272.800,15.200 273.036,15.200 273.325 C 15.200 273.614,15.560 274.595,16.000 275.506 C 16.440 276.416,16.800 277.440,16.800 277.781 C 16.800 278.121,16.980 278.400,17.200 278.400 C 17.420 278.400,17.600 278.760,17.600 279.200 C 17.600 279.640,17.780 280.000,18.000 280.000 C 18.220 280.000,18.400 280.360,18.400 280.800 C 18.400 281.240,18.580 281.600,18.800 281.600 C 19.020 281.600,19.200 281.960,19.200 282.400 C 19.200 282.840,19.380 283.200,19.600 283.200 C 19.820 283.200,20.000 283.560,20.000 284.000 C 20.000 284.440,20.180 284.800,20.400 284.800 C 20.620 284.800,20.800 285.160,20.800 285.600 C 20.800 286.040,20.980 286.400,21.200 286.400 C 21.420 286.400,21.600 286.760,21.600 287.200 C 21.600 287.640,21.780 288.000,22.000 288.000 C 22.220 288.000,22.400 288.360,22.400 288.800 C 22.400 289.240,22.580 289.600,22.800 289.600 C 23.020 289.600,23.200 289.960,23.200 290.400 C 23.200 290.840,23.380 291.200,23.600 291.200 C 23.820 291.200,24.000 291.470,24.000 291.800 C 24.000 292.130,24.180 292.400,24.400 292.400 C 24.620 292.400,24.800 292.760,24.800 293.200 C 24.800 293.640,24.980 294.000,25.200 294.000 C 25.420 294.000,25.600 294.320,25.600 294.712 C 25.600 295.103,25.960 295.683,26.400 296.000 C 26.840 296.317,27.200 296.801,27.200 297.075 C 27.200 297.819,28.499 300.400,28.874 300.400 C 29.053 300.400,29.200 300.760,29.200 301.200 C 29.200 301.640,29.358 302.000,29.551 302.000 C 29.745 302.000,30.127 302.540,30.400 303.200 C 30.673 303.860,31.055 304.400,31.249 304.400 C 31.442 304.400,31.600 304.636,31.600 304.925 C 31.600 305.213,31.960 305.836,32.400 306.308 C 32.840 306.780,33.200 307.353,33.200 307.580 C 33.200 307.807,33.560 308.218,34.000 308.493 C 34.440 308.768,34.800 309.269,34.800 309.608 C 34.800 309.946,35.160 310.483,35.600 310.800 C 36.040 311.117,36.400 311.657,36.400 312.000 C 36.400 312.343,36.760 312.883,37.200 313.200 C 37.640 313.517,38.000 313.980,38.000 314.229 C 38.000 314.478,38.540 315.246,39.200 315.937 C 39.860 316.628,40.400 317.348,40.400 317.537 C 40.400 317.726,40.940 318.446,41.600 319.137 C 42.260 319.828,42.800 320.574,42.800 320.796 C 42.800 321.018,42.980 321.200,43.200 321.200 C 43.420 321.200,43.600 321.392,43.600 321.626 C 43.600 322.101,46.156 325.227,48.605 327.748 C 49.488 328.657,50.653 330.030,51.194 330.800 C 52.447 332.583,69.515 349.600,70.051 349.600 C 70.271 349.600,71.329 350.500,72.400 351.600 C 73.471 352.700,74.537 353.600,74.767 353.600 C 74.998 353.600,75.865 354.228,76.693 354.996 C 79.097 357.223,82.149 359.600,82.604 359.600 C 82.835 359.600,83.283 359.960,83.600 360.400 C 83.917 360.840,84.425 361.200,84.728 361.200 C 85.031 361.200,85.783 361.740,86.400 362.400 C 87.017 363.060,87.769 363.600,88.072 363.600 C 88.375 363.600,88.883 363.960,89.200 364.400 C 89.517 364.840,90.057 365.200,90.400 365.200 C 90.743 365.200,91.283 365.560,91.600 366.000 C 91.917 366.440,92.431 366.800,92.741 366.800 C 93.052 366.800,93.597 367.116,93.953 367.503 C 94.309 367.889,95.092 368.458,95.693 368.767 C 96.295 369.075,97.142 369.659,97.577 370.064 C 98.011 370.469,98.644 370.800,98.983 370.800 C 99.322 370.800,99.600 370.945,99.600 371.121 C 99.600 371.298,100.497 371.883,101.594 372.421 C 102.690 372.960,103.590 373.535,103.594 373.700 C 103.597 373.865,103.883 374.000,104.229 374.000 C 104.574 374.000,105.127 374.270,105.457 374.600 C 105.787 374.930,106.404 375.200,106.829 375.200 C 107.253 375.200,107.600 375.380,107.600 375.600 C 107.600 375.820,107.960 376.000,108.400 376.000 C 108.840 376.000,109.200 376.180,109.200 376.400 C 109.200 376.620,109.470 376.800,109.800 376.800 C 110.130 376.800,110.400 376.980,110.400 377.200 C 110.400 377.420,110.760 377.600,111.200 377.600 C 111.640 377.600,112.000 377.780,112.000 378.000 C 112.000 378.220,112.360 378.400,112.800 378.400 C 113.240 378.400,113.600 378.580,113.600 378.800 C 113.600 379.020,113.960 379.200,114.400 379.200 C 114.840 379.200,115.200 379.380,115.200 379.600 C 115.200 379.820,115.560 380.000,116.000 380.000 C 116.440 380.000,116.800 380.180,116.800 380.400 C 116.800 380.620,117.160 380.800,117.600 380.800 C 118.040 380.800,118.400 380.980,118.400 381.200 C 118.400 381.420,118.760 381.600,119.200 381.600 C 119.640 381.600,120.000 381.780,120.000 382.000 C 120.000 382.220,120.349 382.400,120.776 382.400 C 121.203 382.400,121.664 382.580,121.800 382.800 C 121.936 383.020,122.487 383.200,123.024 383.200 C 123.561 383.200,124.000 383.380,124.000 383.600 C 124.000 383.820,124.360 384.000,124.800 384.000 C 125.240 384.000,125.600 384.180,125.600 384.400 C 125.600 384.620,125.949 384.800,126.376 384.800 C 126.803 384.800,127.264 384.980,127.400 385.200 C 127.536 385.420,127.997 385.600,128.424 385.600 C 128.851 385.600,129.200 385.780,129.200 386.000 C 129.200 386.220,129.562 386.400,130.005 386.400 C 130.448 386.400,131.168 386.580,131.605 386.800 C 132.042 387.020,132.758 387.380,133.195 387.600 C 133.632 387.820,134.352 388.000,134.795 388.000 C 135.238 388.000,135.600 388.180,135.600 388.400 C 135.600 388.620,135.962 388.800,136.405 388.800 C 136.848 388.800,137.523 388.971,137.905 389.181 C 139.219 389.902,143.434 391.193,145.316 391.450 C 146.352 391.593,147.200 391.864,147.200 392.054 C 147.200 392.244,147.729 392.400,148.376 392.400 C 149.023 392.400,149.664 392.580,149.800 392.800 C 149.936 393.020,150.667 393.200,151.424 393.200 C 152.181 393.200,152.800 393.380,152.800 393.600 C 152.800 393.820,153.520 394.000,154.400 394.000 C 155.280 394.000,156.000 394.180,156.000 394.400 C 156.000 394.620,156.720 394.800,157.600 394.800 C 158.480 394.800,159.200 394.980,159.200 395.200 C 159.200 395.420,159.909 395.600,160.776 395.600 C 161.643 395.600,162.464 395.780,162.600 396.000 C 162.736 396.220,163.647 396.400,164.624 396.400 C 165.601 396.400,166.400 396.580,166.400 396.800 C 166.400 397.020,167.390 397.200,168.600 397.200 C 169.810 397.200,170.800 397.380,170.800 397.600 C 170.800 397.822,171.867 398.000,173.200 398.000 C 174.533 398.000,175.600 398.178,175.600 398.400 C 175.600 398.631,176.856 398.800,178.567 398.800 C 180.584 398.800,181.587 398.960,181.700 399.300 C 181.943 400.030,230.129 400.030,230.860 399.300 C 231.161 398.999,232.433 398.800,234.056 398.800 C 235.539 398.800,236.864 398.620,237.000 398.400 C 237.136 398.180,238.227 398.000,239.424 398.000 C 240.621 398.000,241.600 397.820,241.600 397.600 C 241.600 397.380,242.579 397.200,243.776 397.200 C 244.973 397.200,246.064 397.020,246.200 396.800 C 246.336 396.580,247.157 396.400,248.024 396.400 C 248.891 396.400,249.600 396.220,249.600 396.000 C 249.600 395.780,250.500 395.600,251.600 395.600 C 252.700 395.600,253.600 395.420,253.600 395.200 C 253.600 394.980,254.230 394.800,255.000 394.800 C 255.770 394.800,256.400 394.620,256.400 394.400 C 256.400 394.180,257.120 394.000,258.000 394.000 C 258.880 394.000,259.600 393.820,259.600 393.600 C 259.600 393.380,260.219 393.200,260.976 393.200 C 261.733 393.200,262.464 393.020,262.600 392.800 C 262.736 392.580,263.377 392.400,264.024 392.400 C 264.671 392.400,265.200 392.241,265.200 392.046 C 265.200 391.851,266.187 391.569,267.394 391.418 C 268.600 391.267,269.691 390.977,269.817 390.772 C 269.944 390.567,270.476 390.400,271.000 390.400 C 271.524 390.400,272.064 390.220,272.200 390.000 C 272.336 389.780,272.876 389.600,273.400 389.600 C 273.924 389.600,274.464 389.420,274.600 389.200 C 274.736 388.980,275.287 388.800,275.824 388.800 C 276.361 388.800,276.800 388.620,276.800 388.400 C 276.800 388.180,277.239 388.000,277.776 388.000 C 278.313 388.000,278.864 387.820,279.000 387.600 C 279.136 387.380,279.597 387.200,280.024 387.200 C 280.451 387.200,280.800 387.020,280.800 386.800 C 280.800 386.580,281.340 386.400,282.000 386.400 C 282.660 386.400,283.200 386.220,283.200 386.000 C 283.200 385.780,283.560 385.600,284.000 385.600 C 284.440 385.600,284.800 385.420,284.800 385.200 C 284.800 384.980,285.239 384.800,285.776 384.800 C 286.313 384.800,286.864 384.620,287.000 384.400 C 287.136 384.180,287.597 384.000,288.024 384.000 C 288.451 384.000,288.800 383.820,288.800 383.600 C 288.800 383.380,289.149 383.200,289.576 383.200 C 290.003 383.200,290.464 383.020,290.600 382.800 C 290.736 382.580,291.197 382.400,291.624 382.400 C 292.051 382.400,292.400 382.220,292.400 382.000 C 292.400 381.780,292.760 381.600,293.200 381.600 C 293.640 381.600,294.000 381.420,294.000 381.200 C 294.000 380.980,294.360 380.800,294.800 380.800 C 295.240 380.800,295.600 380.620,295.600 380.400 C 295.600 380.180,295.960 380.000,296.400 380.000 C 296.840 380.000,297.200 379.820,297.200 379.600 C 297.200 379.380,297.560 379.200,298.000 379.200 C 298.440 379.200,298.800 379.020,298.800 378.800 C 298.800 378.580,299.160 378.400,299.600 378.400 C 300.040 378.400,300.400 378.220,300.400 378.000 C 300.400 377.780,300.760 377.600,301.200 377.600 C 301.640 377.600,302.000 377.420,302.000 377.200 C 302.000 376.980,302.360 376.800,302.800 376.800 C 303.240 376.800,303.600 376.620,303.600 376.400 C 303.600 376.180,303.960 376.000,304.400 376.000 C 304.840 376.000,305.202 375.865,305.204 375.700 C 305.206 375.535,306.016 375.045,307.004 374.610 C 307.992 374.176,308.803 373.726,308.806 373.610 C 308.810 373.495,309.710 372.960,310.806 372.421 C 311.903 371.883,312.800 371.298,312.800 371.121 C 312.800 370.945,313.078 370.800,313.417 370.800 C 313.756 370.800,314.420 370.440,314.892 370.000 C 315.364 369.560,315.987 369.200,316.275 369.200 C 316.564 369.200,316.800 369.020,316.800 368.800 C 316.800 368.580,317.120 368.400,317.512 368.400 C 317.903 368.400,318.483 368.040,318.800 367.600 C 319.117 367.160,319.657 366.800,320.000 366.800 C 320.343 366.800,320.883 366.440,321.200 366.000 C 321.517 365.560,322.007 365.200,322.288 365.200 C 322.570 365.200,322.800 365.020,322.800 364.800 C 322.800 364.580,323.070 364.400,323.400 364.400 C 323.730 364.400,324.000 364.220,324.000 364.000 C 324.000 363.780,324.230 363.600,324.512 363.600 C 324.793 363.600,325.283 363.240,325.600 362.800 C 325.917 362.360,326.380 362.000,326.629 362.000 C 326.878 362.000,327.646 361.460,328.337 360.800 C 329.028 360.140,329.787 359.600,330.025 359.600 C 330.263 359.600,330.708 359.375,331.015 359.100 C 331.887 358.318,332.493 357.853,334.000 356.808 C 334.770 356.275,335.670 355.551,336.000 355.200 C 336.330 354.849,337.230 354.124,338.000 353.588 C 338.770 353.052,339.979 352.070,340.686 351.407 C 341.393 350.743,343.989 348.310,346.454 346.000 C 353.427 339.467,363.600 329.052,363.600 328.447 C 363.600 328.246,364.500 327.162,365.600 326.039 C 366.700 324.915,367.600 323.907,367.600 323.799 C 367.600 323.690,368.320 322.837,369.200 321.903 C 370.080 320.969,370.800 320.060,370.800 319.884 C 370.800 319.708,371.250 319.114,371.800 318.564 C 372.350 318.014,372.800 317.416,372.800 317.236 C 372.800 317.056,373.337 316.299,373.994 315.554 C 374.650 314.809,375.190 313.925,375.194 313.588 C 375.197 313.252,375.560 312.717,376.000 312.400 C 376.440 312.083,376.800 311.543,376.800 311.200 C 376.800 310.857,377.160 310.317,377.600 310.000 C 378.040 309.683,378.400 309.193,378.400 308.912 C 378.400 308.630,378.550 308.400,378.732 308.400 C 378.915 308.400,379.320 307.905,379.632 307.300 C 379.945 306.695,380.515 305.851,380.900 305.425 C 381.285 304.998,381.600 304.496,381.600 304.308 C 381.600 304.120,381.960 303.580,382.400 303.108 C 382.840 302.636,383.200 302.013,383.200 301.725 C 383.200 301.436,383.380 301.200,383.600 301.200 C 383.820 301.200,384.000 300.922,384.000 300.583 C 384.000 300.244,384.360 299.580,384.800 299.108 C 385.240 298.636,385.600 298.013,385.600 297.725 C 385.600 297.436,385.780 297.200,386.000 297.200 C 386.220 297.200,386.400 296.840,386.400 296.400 C 386.400 295.960,386.580 295.600,386.800 295.600 C 387.020 295.600,387.200 295.255,387.200 294.833 C 387.200 294.412,387.350 294.007,387.533 293.933 C 387.820 293.818,388.912 291.979,391.056 288.000 C 391.353 287.450,391.596 286.685,391.598 286.300 C 391.599 285.915,391.780 285.600,392.000 285.600 C 392.220 285.600,392.400 285.240,392.400 284.800 C 392.400 284.360,392.580 284.000,392.800 284.000 C 393.020 284.000,393.200 283.640,393.200 283.200 C 393.200 282.760,393.380 282.400,393.600 282.400 C 393.820 282.400,394.000 282.040,394.000 281.600 C 394.000 281.160,394.180 280.800,394.400 280.800 C 394.620 280.800,394.800 280.451,394.800 280.024 C 394.800 279.597,394.980 279.136,395.200 279.000 C 395.420 278.864,395.600 278.313,395.600 277.776 C 395.600 277.239,395.780 276.800,396.000 276.800 C 396.220 276.800,396.400 276.440,396.400 276.000 C 396.400 275.560,396.580 275.200,396.800 275.200 C 397.020 275.200,397.200 274.840,397.200 274.400 C 397.200 273.960,397.380 273.600,397.600 273.600 C 397.820 273.600,398.000 273.150,398.000 272.600 C 398.000 272.050,398.180 271.600,398.400 271.600 C 398.620 271.600,398.800 271.165,398.800 270.633 C 398.800 270.102,399.025 269.592,399.300 269.500 C 399.666 269.378,399.800 267.943,399.800 264.157 L 399.800 258.980 397.911 257.090 C 396.655 255.834,395.682 255.200,395.011 255.200 C 394.455 255.200,394.000 255.020,394.000 254.800 C 394.000 254.278,389.723 254.278,389.400 254.800 C 389.264 255.020,388.724 255.200,388.200 255.200 C 387.676 255.200,387.136 255.380,387.000 255.600 C 386.864 255.820,386.313 256.000,385.776 256.000 C 385.239 256.000,384.800 256.180,384.800 256.400 C 384.800 256.620,384.260 256.800,383.600 256.800 C 382.940 256.800,382.400 256.980,382.400 257.200 C 382.400 257.420,381.961 257.600,381.424 257.600 C 380.887 257.600,380.336 257.780,380.200 258.000 C 380.064 258.220,379.524 258.400,379.000 258.400 C 378.476 258.400,377.936 258.580,377.800 258.800 C 377.664 259.020,377.124 259.200,376.600 259.200 C 376.076 259.200,375.551 259.356,375.433 259.547 C 375.314 259.738,374.139 260.017,372.821 260.166 C 371.503 260.315,370.318 260.609,370.189 260.818 C 370.059 261.028,369.344 261.200,368.600 261.200 C 367.856 261.200,367.136 261.380,367.000 261.600 C 366.864 261.820,366.144 262.000,365.400 262.000 C 364.656 262.000,363.936 262.180,363.800 262.400 C 363.664 262.620,362.753 262.800,361.776 262.800 C 360.799 262.800,360.000 262.980,360.000 263.200 C 360.000 263.420,359.201 263.600,358.224 263.600 C 357.247 263.600,356.336 263.780,356.200 264.000 C 356.064 264.220,354.984 264.400,353.800 264.400 C 352.616 264.400,351.536 264.580,351.400 264.800 C 351.264 265.020,350.184 265.200,349.000 265.200 C 347.816 265.200,346.736 265.380,346.600 265.600 C 346.464 265.820,344.833 266.000,342.976 266.000 C 340.992 266.000,339.600 266.165,339.600 266.400 C 339.600 266.651,337.075 266.800,332.824 266.800 C 328.737 266.800,325.949 266.959,325.800 267.200 C 325.469 267.735,316.000 267.735,316.000 267.200 C 316.000 266.951,313.741 266.800,310.024 266.800 C 306.471 266.800,303.947 266.638,303.800 266.400 C 303.664 266.180,302.134 266.000,300.400 266.000 C 298.666 266.000,297.136 265.820,297.000 265.600 C 296.864 265.380,295.593 265.200,294.176 265.200 C 292.725 265.200,291.600 265.025,291.600 264.800 C 291.600 264.580,290.621 264.400,289.424 264.400 C 288.227 264.400,287.136 264.220,287.000 264.000 C 286.864 263.780,285.953 263.600,284.976 263.600 C 283.999 263.600,283.200 263.420,283.200 263.200 C 283.200 262.980,282.491 262.800,281.624 262.800 C 280.757 262.800,279.948 262.639,279.826 262.442 C 279.705 262.245,278.929 261.990,278.103 261.875 C 277.276 261.760,275.790 261.457,274.800 261.202 C 273.810 260.948,271.965 260.539,270.700 260.293 C 269.435 260.048,268.400 259.702,268.400 259.524 C 268.400 259.346,267.680 259.200,266.800 259.200 C 265.920 259.200,265.200 259.020,265.200 258.800 C 265.200 258.580,264.660 258.400,264.000 258.400 C 263.340 258.400,262.800 258.220,262.800 258.000 C 262.800 257.780,262.361 257.600,261.824 257.600 C 261.287 257.600,260.736 257.420,260.600 257.200 C 260.464 256.980,259.913 256.800,259.376 256.800 C 258.839 256.800,258.400 256.620,258.400 256.400 C 258.400 256.180,257.950 256.000,257.400 256.000 C 256.850 256.000,256.400 255.820,256.400 255.600 C 256.400 255.380,255.950 255.200,255.400 255.200 C 254.850 255.200,254.400 255.020,254.400 254.800 C 254.400 254.580,254.051 254.400,253.624 254.400 C 253.197 254.400,252.736 254.220,252.600 254.000 C 252.464 253.780,251.913 253.600,251.376 253.600 C 250.839 253.600,250.400 253.420,250.400 253.200 C 250.400 252.980,250.051 252.800,249.624 252.800 C 249.197 252.800,248.736 252.620,248.600 252.400 C 248.464 252.180,247.913 252.000,247.376 252.000 C 246.839 252.000,246.400 251.820,246.400 251.600 C 246.400 251.380,246.040 251.200,245.600 251.200 C 245.160 251.200,244.800 251.020,244.800 250.800 C 244.800 250.580,244.440 250.400,244.000 250.400 C 243.560 250.400,243.200 250.220,243.200 250.000 C 243.200 249.780,242.840 249.600,242.400 249.600 C 241.960 249.600,241.600 249.420,241.600 249.200 C 241.600 248.980,241.376 248.800,241.103 248.800 C 240.829 248.800,238.326 247.630,235.541 246.200 C 232.756 244.770,230.229 243.600,229.927 243.600 C 229.624 243.600,229.117 243.240,228.800 242.800 C 228.483 242.360,227.903 242.000,227.512 242.000 C 227.120 242.000,226.800 241.820,226.800 241.600 C 226.800 241.380,226.440 241.200,226.000 241.200 C 225.560 241.200,225.200 241.020,225.200 240.800 C 225.200 240.580,224.930 240.400,224.600 240.400 C 224.270 240.400,224.000 240.250,224.000 240.068 C 224.000 239.885,223.505 239.480,222.900 239.168 C 222.295 238.855,221.451 238.285,221.025 237.900 C 220.598 237.515,220.096 237.200,219.908 237.200 C 219.720 237.200,219.180 236.840,218.708 236.400 C 218.236 235.960,217.613 235.600,217.325 235.600 C 217.036 235.600,216.800 235.420,216.800 235.200 C 216.800 234.980,216.557 234.800,216.259 234.800 C 215.962 234.800,215.154 234.260,214.463 233.600 C 213.772 232.940,212.975 232.400,212.692 232.400 C 212.409 232.400,211.917 232.040,211.600 231.600 C 211.283 231.160,210.827 230.800,210.587 230.800 C 210.347 230.800,209.802 230.480,209.375 230.088 C 208.949 229.696,207.880 228.843,207.000 228.192 C 206.120 227.541,205.109 226.692,204.753 226.304 C 204.397 225.917,203.930 225.600,203.714 225.600 C 203.499 225.600,202.187 224.520,200.800 223.200 C 199.413 221.880,198.113 220.800,197.912 220.800 C 197.403 220.800,179.200 202.528,179.200 202.017 C 179.200 201.787,179.020 201.600,178.800 201.600 C 178.580 201.600,178.400 201.406,178.400 201.169 C 178.400 200.931,177.725 200.076,176.900 199.269 C 176.075 198.461,174.907 197.080,174.304 196.200 C 172.805 194.011,171.603 192.470,170.300 191.066 C 169.695 190.415,169.200 189.678,169.200 189.429 C 169.200 189.180,168.840 188.717,168.400 188.400 C 167.960 188.083,167.600 187.569,167.600 187.259 C 167.600 186.948,167.284 186.403,166.897 186.047 C 166.511 185.691,165.940 184.905,165.630 184.300 C 165.319 183.695,164.915 183.200,164.732 183.200 C 164.550 183.200,164.400 182.930,164.400 182.600 C 164.400 182.270,164.220 182.000,164.000 182.000 C 163.780 182.000,163.600 181.730,163.600 181.400 C 163.600 181.070,163.420 180.800,163.200 180.800 C 162.980 180.800,162.800 180.564,162.800 180.275 C 162.800 179.987,162.440 179.364,162.000 178.892 C 161.560 178.420,161.200 177.886,161.200 177.705 C 161.200 177.524,160.840 177.117,160.400 176.800 C 159.960 176.483,159.600 175.903,159.600 175.512 C 159.600 175.120,159.420 174.800,159.200 174.800 C 158.980 174.800,158.800 174.521,158.800 174.180 C 158.800 173.548,157.695 171.163,157.235 170.800 C 157.095 170.690,156.179 168.980,155.200 167.000 C 154.221 165.020,153.325 163.310,153.210 163.200 C 152.752 162.764,151.200 159.490,151.200 158.962 C 151.200 158.653,151.020 158.400,150.800 158.400 C 150.580 158.400,150.400 158.040,150.400 157.600 C 150.400 157.160,150.220 156.800,150.000 156.800 C 149.780 156.800,149.600 156.440,149.600 156.000 C 149.600 155.560,149.420 155.200,149.200 155.200 C 148.980 155.200,148.800 154.840,148.800 154.400 C 148.800 153.960,148.620 153.600,148.400 153.600 C 148.180 153.600,148.000 153.161,148.000 152.624 C 148.000 152.087,147.820 151.536,147.600 151.400 C 147.380 151.264,147.200 150.803,147.200 150.376 C 147.200 149.949,147.020 149.600,146.800 149.600 C 146.580 149.600,146.400 149.150,146.400 148.600 C 146.400 148.050,146.220 147.600,146.000 147.600 C 145.780 147.600,145.600 147.150,145.600 146.600 C 145.600 146.050,145.420 145.600,145.200 145.600 C 144.980 145.600,144.800 145.150,144.800 144.600 C 144.800 144.050,144.620 143.600,144.400 143.600 C 144.180 143.600,144.000 143.251,144.000 142.824 C 144.000 142.397,143.820 141.936,143.600 141.800 C 143.380 141.664,143.200 141.113,143.200 140.576 C 143.200 140.039,143.020 139.600,142.800 139.600 C 142.580 139.600,142.400 139.060,142.400 138.400 C 142.400 137.740,142.238 137.200,142.039 137.200 C 141.841 137.200,141.553 136.120,141.400 134.799 C 141.247 133.479,140.959 132.298,140.761 132.176 C 140.562 132.053,140.400 131.434,140.400 130.800 C 140.400 130.166,140.220 129.536,140.000 129.400 C 139.780 129.264,139.600 128.634,139.600 128.000 C 139.600 127.366,139.420 126.736,139.200 126.600 C 138.980 126.464,138.800 125.834,138.800 125.200 C 138.800 124.566,138.639 123.948,138.442 123.826 C 138.106 123.618,137.894 122.589,137.347 118.500 C 137.222 117.565,136.958 116.800,136.760 116.800 C 136.562 116.800,136.400 116.001,136.400 115.024 C 136.400 114.047,136.220 113.136,136.000 113.000 C 135.780 112.864,135.600 111.773,135.600 110.576 C 135.600 109.379,135.420 108.400,135.200 108.400 C 134.975 108.400,134.800 107.275,134.800 105.824 C 134.800 104.407,134.620 103.136,134.400 103.000 C 134.180 102.864,134.000 101.334,134.000 99.600 C 134.000 97.866,133.820 96.336,133.600 96.200 C 133.362 96.053,133.200 93.537,133.200 90.000 C 133.200 86.463,133.038 83.947,132.800 83.800 C 132.573 83.660,132.400 81.670,132.400 79.200 C 132.400 76.730,132.573 74.740,132.800 74.600 C 133.042 74.450,133.200 71.596,133.200 67.376 C 133.200 62.992,133.349 60.400,133.600 60.400 C 133.835 60.400,134.000 59.008,134.000 57.024 C 134.000 55.167,134.180 53.536,134.400 53.400 C 134.620 53.264,134.800 52.184,134.800 51.000 C 134.800 49.816,134.980 48.736,135.200 48.600 C 135.420 48.464,135.600 47.384,135.600 46.200 C 135.600 45.016,135.780 43.936,136.000 43.800 C 136.220 43.664,136.400 42.753,136.400 41.776 C 136.400 40.799,136.580 40.000,136.800 40.000 C 137.020 40.000,137.200 39.201,137.200 38.224 C 137.200 37.247,137.380 36.336,137.600 36.200 C 137.820 36.064,138.000 35.344,138.000 34.600 C 138.000 33.856,138.180 33.136,138.400 33.000 C 138.620 32.864,138.800 32.133,138.800 31.376 C 138.800 30.619,138.980 30.000,139.200 30.000 C 139.420 30.000,139.600 29.280,139.600 28.400 C 139.600 27.520,139.780 26.800,140.000 26.800 C 140.220 26.800,140.400 26.271,140.400 25.624 C 140.400 24.977,140.567 24.344,140.772 24.217 C 140.977 24.091,141.267 23.000,141.418 21.794 C 141.569 20.587,141.851 19.600,142.046 19.600 C 142.241 19.600,142.400 19.150,142.400 18.600 C 142.400 18.050,142.580 17.600,142.800 17.600 C 143.020 17.600,143.200 17.060,143.200 16.400 C 143.200 15.740,143.380 15.200,143.600 15.200 C 143.820 15.200,144.000 14.660,144.000 14.000 C 144.000 13.340,144.180 12.800,144.400 12.800 C 144.620 12.800,144.800 12.260,144.800 11.600 C 144.800 10.940,144.980 10.400,145.200 10.400 C 145.420 10.400,145.600 9.601,145.600 8.624 C 145.600 7.647,145.420 6.736,145.200 6.600 C 144.980 6.464,144.800 6.001,144.800 5.571 C 144.800 4.525,144.086 3.345,142.414 1.625 L 141.029 0.200 136.814 0.138 C 134.496 0.104,132.173 0.164,131.651 0.272 M122.671 24.747 C 122.558 25.326,122.258 26.520,122.004 27.400 C 121.751 28.280,121.377 29.810,121.174 30.800 C 120.971 31.790,120.614 33.410,120.381 34.400 C 119.614 37.653,118.955 41.300,117.597 49.800 C 114.011 72.255,115.481 103.166,121.269 127.000 C 121.483 127.880,121.755 129.187,121.873 129.904 C 121.992 130.621,122.249 131.306,122.444 131.427 C 122.640 131.548,122.800 132.078,122.800 132.605 C 122.800 133.131,122.961 133.976,123.158 134.481 C 123.355 134.987,123.733 136.210,123.997 137.200 C 124.262 138.190,124.640 139.313,124.839 139.695 C 125.038 140.077,125.200 140.741,125.200 141.171 C 125.200 141.601,125.380 142.064,125.600 142.200 C 125.820 142.336,126.000 142.851,126.000 143.344 C 126.000 143.837,126.143 144.411,126.318 144.620 C 126.493 144.829,126.866 145.720,127.147 146.600 C 127.765 148.538,129.102 152.160,129.806 153.800 C 130.089 154.460,130.951 156.530,131.722 158.400 C 135.178 166.783,141.398 179.128,144.047 182.862 C 144.461 183.446,144.800 184.023,144.800 184.144 C 144.800 184.384,149.118 191.169,151.709 195.000 C 153.308 197.363,158.778 204.810,159.203 205.200 C 159.323 205.310,160.041 206.210,160.800 207.200 C 161.559 208.190,162.276 209.090,162.395 209.200 C 162.514 209.310,163.761 210.750,165.167 212.400 C 173.383 222.041,182.332 230.653,194.203 240.344 C 200.712 245.657,220.046 258.400,221.598 258.400 C 221.783 258.400,221.993 258.547,222.067 258.727 C 222.204 259.063,236.219 266.071,239.800 267.594 C 244.612 269.641,252.196 272.476,257.000 274.024 C 259.860 274.946,262.560 275.843,263.000 276.017 C 263.823 276.343,264.771 276.610,267.200 277.204 C 267.970 277.393,269.320 277.752,270.200 278.004 C 271.080 278.255,272.565 278.627,273.500 278.830 C 274.435 279.034,276.010 279.380,277.000 279.600 C 300.617 284.848,327.554 285.849,351.400 282.365 C 359.744 281.145,371.036 278.771,374.493 277.508 C 377.250 276.501,376.822 278.022,371.817 287.000 C 369.308 291.502,361.112 304.095,358.930 306.800 C 358.127 307.796,353.057 314.144,352.407 314.969 C 346.647 322.268,330.526 337.950,324.643 341.977 C 324.179 342.294,323.710 342.664,323.600 342.800 C 323.172 343.326,316.830 347.973,313.600 350.126 C 311.730 351.373,309.986 352.571,309.724 352.790 C 309.462 353.008,308.562 353.571,307.724 354.040 C 306.886 354.510,305.722 355.233,305.138 355.647 C 304.554 356.061,303.879 356.400,303.638 356.400 C 303.397 356.400,303.200 356.559,303.200 356.753 C 303.200 356.948,302.885 357.210,302.500 357.336 C 302.115 357.462,300.900 358.107,299.800 358.771 C 297.835 359.956,284.744 366.543,282.000 367.728 C 281.230 368.060,278.440 369.170,275.800 370.195 C 273.160 371.220,270.687 372.225,270.305 372.429 C 269.923 372.633,269.284 372.800,268.885 372.800 C 268.486 372.800,267.989 372.948,267.780 373.128 C 267.571 373.308,266.050 373.875,264.400 374.388 C 262.750 374.900,260.590 375.585,259.600 375.911 C 258.610 376.237,257.170 376.645,256.400 376.820 C 255.630 376.994,253.560 377.513,251.800 377.973 C 224.816 385.021,189.599 385.349,164.000 378.791 C 163.230 378.594,161.430 378.141,160.000 377.784 C 158.570 377.428,156.770 376.958,156.000 376.740 C 155.230 376.523,154.150 376.253,153.600 376.142 C 153.050 376.031,152.240 375.795,151.800 375.618 C 151.360 375.440,149.650 374.881,148.000 374.376 C 146.350 373.870,144.829 373.308,144.620 373.128 C 144.411 372.948,143.914 372.800,143.515 372.800 C 143.116 372.800,142.477 372.634,142.095 372.430 C 141.713 372.227,138.970 371.123,136.000 369.978 C 129.591 367.506,116.753 361.318,112.071 358.444 C 110.239 357.320,108.674 356.400,108.591 356.400 C 108.109 356.400,92.903 346.137,92.000 345.203 C 91.890 345.089,91.141 344.504,90.335 343.904 C 89.529 343.303,88.629 342.577,88.335 342.290 C 88.041 342.002,87.421 341.505,86.957 341.184 C 86.005 340.524,82.854 337.880,79.830 335.202 C 78.714 334.214,75.280 330.884,72.200 327.802 C 67.199 322.799,65.760 321.271,61.986 316.959 C 59.806 314.468,52.882 305.505,50.690 302.338 C 47.233 297.341,43.600 291.629,43.600 291.189 C 43.600 290.975,43.420 290.800,43.200 290.800 C 42.980 290.800,42.800 290.617,42.800 290.393 C 42.800 290.169,42.060 288.774,41.156 287.293 C 39.207 284.099,31.969 269.355,30.803 266.200 C 30.640 265.760,30.303 264.905,30.054 264.300 C 29.804 263.695,29.420 262.750,29.200 262.200 C 28.980 261.650,28.630 260.795,28.421 260.300 C 28.213 259.805,27.484 257.690,26.800 255.600 C 26.116 253.510,25.402 251.440,25.212 251.000 C 25.022 250.560,24.750 249.750,24.606 249.200 C 24.463 248.650,24.194 247.660,24.008 247.000 C 21.788 239.128,21.216 236.809,20.208 231.600 C 14.194 200.517,15.297 170.999,23.548 142.200 C 23.737 141.540,24.114 140.190,24.385 139.200 C 24.656 138.210,25.040 137.087,25.239 136.705 C 25.438 136.323,25.600 135.684,25.600 135.285 C 25.600 134.886,25.748 134.389,25.928 134.180 C 26.108 133.971,26.681 132.450,27.200 130.800 C 27.719 129.150,28.292 127.629,28.472 127.420 C 28.652 127.211,28.800 126.804,28.800 126.516 C 28.800 126.227,29.178 125.138,29.640 124.096 C 30.102 123.053,30.628 121.840,30.809 121.400 C 30.990 120.960,31.467 119.799,31.869 118.821 C 34.944 111.338,44.504 93.398,45.700 92.867 C 45.865 92.793,46.000 92.561,46.000 92.351 C 46.000 92.141,47.110 90.311,48.466 88.285 C 59.378 71.977,73.118 57.026,88.200 45.050 C 90.620 43.128,92.874 41.332,93.209 41.059 C 96.377 38.480,110.590 29.360,114.200 27.590 C 114.860 27.266,115.490 26.907,115.600 26.793 C 116.125 26.245,122.242 23.353,122.538 23.513 C 122.725 23.613,122.784 24.168,122.671 24.747 " stroke="none" fill="#040404" fill-rule="evenodd"></path><path id="path1" d="M120.000 25.158 C 103.526 33.705,88.841 44.215,75.800 56.793 C 71.107 61.320,64.158 68.726,61.200 72.355 C 60.430 73.299,59.530 74.392,59.200 74.783 C 55.302 79.400,46.888 91.484,43.977 96.645 C 43.591 97.330,43.033 98.320,42.738 98.845 C 42.442 99.370,42.110 99.890,42.000 100.000 C 40.889 101.111,32.980 117.638,30.419 124.200 C 29.833 125.701,29.107 127.399,28.753 128.095 C 28.559 128.477,28.400 129.116,28.400 129.515 C 28.400 129.914,28.257 130.411,28.082 130.620 C 27.907 130.829,27.535 131.720,27.255 132.600 C 26.976 133.480,26.600 134.560,26.419 135.000 C 26.239 135.440,25.873 136.610,25.607 137.600 C 25.340 138.590,24.960 139.713,24.761 140.095 C 24.562 140.477,24.400 141.231,24.400 141.771 C 24.400 142.311,24.220 142.864,24.000 143.000 C 23.780 143.136,23.600 143.766,23.600 144.400 C 23.600 145.034,23.420 145.664,23.200 145.800 C 22.980 145.936,22.800 146.519,22.800 147.095 C 22.800 147.672,22.632 148.696,22.427 149.372 C 21.534 152.314,20.647 156.650,19.188 165.200 C 16.686 179.864,16.686 207.736,19.188 222.400 C 20.647 230.950,21.534 235.286,22.427 238.228 C 22.632 238.904,22.800 239.851,22.800 240.334 C 22.800 240.816,22.962 241.523,23.161 241.905 C 23.360 242.287,23.738 243.410,24.003 244.400 C 24.267 245.390,24.645 246.613,24.842 247.119 C 25.039 247.624,25.200 248.392,25.200 248.824 C 25.200 249.257,25.359 249.923,25.553 250.305 C 26.150 251.479,26.686 252.919,27.224 254.800 C 27.507 255.790,27.888 256.771,28.070 256.980 C 28.251 257.189,28.400 257.650,28.400 258.005 C 28.400 258.360,28.760 259.395,29.200 260.306 C 29.640 261.216,30.000 262.204,30.000 262.501 C 30.000 262.797,30.149 263.211,30.331 263.420 C 30.512 263.629,31.349 265.510,32.189 267.600 C 33.625 271.171,38.851 281.985,40.744 285.300 C 41.215 286.125,41.981 287.475,42.447 288.300 C 42.913 289.125,43.633 290.278,44.047 290.862 C 44.461 291.446,44.800 292.049,44.800 292.202 C 44.800 292.616,53.874 305.879,55.766 308.230 C 56.665 309.347,57.850 310.856,58.400 311.583 C 59.440 312.960,59.535 313.073,62.925 317.000 C 66.424 321.053,68.812 323.589,73.600 328.337 C 77.510 332.215,80.044 334.499,87.600 340.959 C 88.150 341.430,89.230 342.253,90.000 342.788 C 90.770 343.324,91.670 344.056,92.000 344.416 C 92.330 344.776,95.750 347.177,99.600 349.753 C 103.450 352.328,106.789 354.563,107.020 354.718 C 107.442 355.001,108.416 355.565,110.100 356.500 C 110.595 356.775,111.090 357.090,111.200 357.201 C 111.310 357.311,111.940 357.671,112.600 358.000 C 113.260 358.329,113.890 358.690,114.000 358.802 C 114.198 359.003,116.984 360.472,122.000 363.021 C 126.614 365.366,131.278 367.430,136.800 369.574 C 139.770 370.727,142.560 371.814,143.000 371.990 C 143.440 372.165,144.610 372.541,145.600 372.824 C 146.590 373.107,147.571 373.488,147.780 373.670 C 147.989 373.851,148.563 374.000,149.056 374.000 C 149.549 374.000,150.064 374.180,150.200 374.400 C 150.336 374.620,150.966 374.800,151.600 374.800 C 152.234 374.800,152.864 374.980,153.000 375.200 C 153.136 375.420,153.689 375.600,154.229 375.600 C 154.769 375.600,155.523 375.758,155.905 375.951 C 157.151 376.580,159.434 377.200,160.505 377.200 C 161.081 377.200,161.652 377.361,161.774 377.558 C 161.895 377.755,162.671 378.013,163.497 378.132 C 164.324 378.251,165.900 378.548,167.000 378.792 C 190.918 384.105,220.849 384.084,245.600 378.737 C 246.590 378.523,248.076 378.251,248.903 378.132 C 249.729 378.013,250.505 377.755,250.626 377.558 C 250.748 377.361,251.456 377.200,252.200 377.200 C 252.944 377.200,253.664 377.020,253.800 376.800 C 253.936 376.580,254.429 376.400,254.895 376.400 C 255.796 376.400,258.139 375.735,259.295 375.151 C 259.677 374.958,260.431 374.800,260.971 374.800 C 261.511 374.800,262.064 374.620,262.200 374.400 C 262.336 374.180,262.876 374.000,263.400 374.000 C 263.924 374.000,264.464 373.820,264.600 373.600 C 264.736 373.380,265.173 373.200,265.570 373.200 C 266.192 373.200,267.589 372.719,271.400 371.194 C 271.840 371.018,274.180 370.109,276.600 369.175 C 283.372 366.560,297.246 359.957,298.400 358.799 C 298.510 358.689,299.140 358.335,299.800 358.012 C 300.460 357.689,301.752 356.924,302.672 356.312 C 303.592 355.701,304.449 355.200,304.577 355.200 C 305.032 355.200,319.372 345.525,320.000 344.794 C 320.110 344.666,320.830 344.126,321.600 343.594 C 322.370 343.062,323.241 342.393,323.535 342.107 C 323.829 341.822,324.729 341.097,325.535 340.496 C 326.341 339.896,327.090 339.310,327.200 339.194 C 327.310 339.078,329.560 337.071,332.200 334.736 C 339.956 327.873,347.308 320.139,355.143 310.600 C 355.505 310.160,356.665 308.630,357.722 307.200 C 358.780 305.770,359.905 304.283,360.222 303.895 C 360.540 303.508,360.800 303.028,360.800 302.829 C 360.800 302.630,360.950 302.407,361.132 302.333 C 362.034 301.972,369.549 289.912,373.305 282.800 C 374.176 281.150,375.049 279.629,375.245 279.420 C 376.347 278.242,374.848 277.880,372.600 278.781 C 372.160 278.958,370.810 279.312,369.600 279.568 C 368.390 279.824,366.770 280.196,366.000 280.396 C 343.330 286.259,308.633 286.636,282.000 281.307 C 273.140 279.535,271.938 279.252,266.100 277.567 C 265.275 277.329,264.103 277.038,263.495 276.921 C 262.887 276.804,262.292 276.549,262.171 276.354 C 262.051 276.159,261.459 276.000,260.856 276.000 C 260.253 276.000,259.589 275.851,259.380 275.670 C 259.171 275.488,258.190 275.107,257.200 274.824 C 255.319 274.286,253.879 273.750,252.705 273.153 C 252.323 272.959,251.736 272.800,251.400 272.800 C 251.064 272.800,250.477 272.636,250.095 272.435 C 249.713 272.235,246.790 271.046,243.600 269.794 C 238.656 267.854,223.408 260.688,222.800 260.020 C 222.561 259.757,221.181 258.962,219.000 257.830 C 218.120 257.374,217.310 256.910,217.200 256.800 C 217.090 256.690,216.550 256.342,216.000 256.027 C 207.000 250.873,195.558 242.595,185.600 234.034 C 179.002 228.362,165.367 214.360,162.822 210.644 C 162.505 210.180,161.965 209.530,161.622 209.200 C 161.280 208.869,160.448 207.879,159.774 207.000 C 159.100 206.120,157.627 204.205,156.500 202.745 C 153.591 198.974,146.000 187.765,146.000 187.240 C 146.000 186.998,145.841 186.800,145.647 186.800 C 145.452 186.800,145.193 186.485,145.071 186.100 C 144.854 185.415,143.596 183.196,143.200 182.800 C 143.090 182.690,142.758 182.170,142.462 181.645 C 142.167 181.120,141.550 180.040,141.093 179.245 C 139.844 177.077,133.903 165.289,132.906 163.000 C 132.426 161.900,131.739 160.280,131.379 159.400 C 131.019 158.520,130.453 157.170,130.121 156.400 C 129.790 155.630,129.336 154.550,129.113 154.000 C 128.889 153.450,128.548 152.687,128.353 152.305 C 128.159 151.923,128.000 151.336,128.000 151.000 C 128.000 150.407,127.834 149.984,126.862 148.105 C 126.608 147.613,126.400 146.859,126.400 146.429 C 126.400 145.999,126.220 145.536,126.000 145.400 C 125.780 145.264,125.600 144.724,125.600 144.200 C 125.600 143.676,125.420 143.136,125.200 143.000 C 124.980 142.864,124.800 142.324,124.800 141.800 C 124.800 141.276,124.620 140.736,124.400 140.600 C 124.180 140.464,124.000 140.001,124.000 139.571 C 124.000 139.141,123.838 138.477,123.639 138.095 C 123.440 137.713,123.066 136.590,122.806 135.600 C 121.772 131.656,121.478 130.551,121.159 129.400 C 119.649 123.955,117.573 113.247,116.817 107.000 C 116.577 105.020,116.213 102.050,116.007 100.400 C 113.752 82.290,115.535 49.470,119.582 34.600 C 119.761 33.940,120.128 32.320,120.397 31.000 C 120.666 29.680,121.032 28.150,121.210 27.600 C 122.290 24.274,122.170 24.032,120.000 25.158 " stroke="none" fill="#fbbb04" fill-rule="evenodd"></path><path id="path2" d="M122.003 23.600 C 121.970 23.710,121.877 24.520,121.797 25.400 L 121.650 27.000 122.046 25.663 C 122.264 24.928,122.357 24.118,122.253 23.863 C 122.148 23.608,122.036 23.490,122.003 23.600 M121.049 27.815 C 120.912 28.173,120.818 28.856,120.841 29.333 C 120.867 29.881,121.003 29.686,121.210 28.803 C 121.560 27.316,121.465 26.733,121.049 27.815 M110.500 30.046 C 109.137 30.919,108.695 31.506,109.900 30.843 C 110.818 30.339,112.256 29.227,112.000 29.219 C 111.890 29.216,111.215 29.588,110.500 30.046 M120.256 31.284 C 120.121 31.788,120.027 32.560,120.046 33.000 C 120.065 33.440,120.245 33.098,120.446 32.240 C 120.836 30.578,120.670 29.740,120.256 31.284 M106.881 32.172 C 105.125 33.414,104.697 33.945,106.200 33.018 C 108.278 31.735,108.991 31.199,108.589 31.220 C 108.375 31.230,107.607 31.659,106.881 32.172 M119.456 34.884 C 119.321 35.388,119.227 36.160,119.246 36.600 C 119.265 37.040,119.445 36.698,119.646 35.840 C 120.036 34.178,119.870 33.340,119.456 34.884 M94.785 40.432 L 93.400 41.663 94.688 40.813 C 95.830 40.059,96.693 39.200,96.308 39.200 C 96.232 39.200,95.547 39.754,94.785 40.432 M91.600 42.849 C 90.206 44.071,90.205 44.072,91.488 43.219 C 92.196 42.748,92.882 42.191,93.012 41.981 C 93.397 41.357,93.077 41.554,91.600 42.849 M86.200 47.035 C 84.220 48.680,82.060 50.603,81.400 51.307 C 80.308 52.474,80.344 52.461,81.800 51.165 C 82.680 50.382,84.885 48.524,86.700 47.036 C 89.519 44.725,90.379 43.915,89.900 44.022 C 89.845 44.035,88.180 45.391,86.200 47.035 M117.455 45.855 C 117.313 46.886,117.274 47.808,117.369 47.902 C 117.463 47.996,117.665 47.239,117.818 46.218 C 117.971 45.198,118.010 44.276,117.904 44.171 C 117.798 44.065,117.596 44.823,117.455 45.855 M116.640 51.440 C 116.490 52.903,116.449 54.182,116.548 54.282 C 116.648 54.381,116.857 53.271,117.013 51.813 C 117.169 50.356,117.211 49.077,117.105 48.972 C 116.999 48.866,116.790 49.977,116.640 51.440 M75.388 56.738 C 72.975 59.101,69.750 62.376,68.221 64.017 C 66.693 65.658,64.812 67.675,64.040 68.500 C 63.269 69.325,62.809 69.985,63.019 69.967 C 63.228 69.949,64.280 68.914,65.355 67.667 C 67.802 64.830,73.030 59.437,77.019 55.634 C 78.694 54.037,80.000 52.666,79.920 52.587 C 79.841 52.508,77.802 54.376,75.388 56.738 M115.787 58.987 C 115.631 60.444,115.593 61.726,115.703 61.836 C 115.813 61.946,116.031 60.844,116.187 59.387 C 116.343 57.929,116.380 56.647,116.270 56.537 C 116.160 56.427,115.943 57.529,115.787 58.987 M115.059 68.660 C 114.735 72.491,114.791 87.452,115.140 90.400 C 115.283 91.610,115.400 86.525,115.400 79.100 C 115.400 71.675,115.381 65.600,115.359 65.600 C 115.336 65.600,115.201 66.977,115.059 68.660 M61.601 71.398 C 61.086 71.948,60.739 72.464,60.832 72.546 C 60.924 72.628,61.419 72.178,61.930 71.547 C 63.076 70.135,62.874 70.044,61.601 71.398 M56.344 77.900 C 55.075 79.432,54.619 80.142,55.081 79.865 C 55.593 79.558,57.369 77.200,57.089 77.200 C 56.998 77.200,56.663 77.515,56.344 77.900 M53.944 81.100 C 52.675 82.632,52.219 83.342,52.681 83.065 C 53.193 82.758,54.969 80.400,54.689 80.400 C 54.598 80.400,54.263 80.715,53.944 81.100 M47.337 90.700 C 46.686 91.745,45.828 93.095,45.431 93.700 C 45.033 94.305,44.793 94.800,44.897 94.800 C 45.105 94.800,47.584 91.138,48.349 89.700 C 49.196 88.109,48.557 88.740,47.337 90.700 M115.697 97.400 C 115.696 98.280,115.832 99.540,116.000 100.200 C 116.440 101.930,116.455 100.043,116.020 97.600 L 115.700 95.800 115.697 97.400 M43.053 97.700 L 42.333 99.000 43.158 98.000 C 43.889 97.113,44.214 96.400,43.886 96.400 C 43.824 96.400,43.449 96.985,43.053 97.700 M39.786 103.300 L 39.152 104.600 39.967 103.600 C 40.752 102.637,41.008 102.000,40.610 102.000 C 40.506 102.000,40.135 102.585,39.786 103.300 M116.476 104.400 C 116.467 104.950,116.603 106.210,116.780 107.200 C 117.020 108.550,117.107 108.700,117.127 107.800 C 117.142 107.140,117.005 105.880,116.823 105.000 C 116.616 103.998,116.486 103.774,116.476 104.400 M117.472 111.400 C 117.599 112.500,117.769 113.475,117.851 113.567 C 118.132 113.882,117.920 111.399,117.580 110.400 C 117.351 109.726,117.316 110.051,117.472 111.400 M35.072 112.619 C 34.132 114.589,34.264 114.924,35.247 113.062 C 35.693 112.216,35.987 111.454,35.901 111.367 C 35.814 111.281,35.441 111.844,35.072 112.619 M118.087 115.000 C 118.091 115.440,118.232 116.340,118.400 117.000 C 118.674 118.078,118.706 118.098,118.713 117.200 C 118.717 116.650,118.576 115.750,118.400 115.200 C 118.149 114.416,118.081 114.373,118.087 115.000 M31.800 119.861 C 31.464 120.665,31.282 121.415,31.395 121.528 C 31.508 121.641,31.600 121.635,31.600 121.516 C 31.600 121.396,31.872 120.646,32.205 119.849 C 32.538 119.052,32.721 118.400,32.611 118.400 C 32.501 118.400,32.136 119.058,31.800 119.861 M119.062 120.200 C 119.383 122.382,120.341 125.964,120.374 125.106 C 120.401 124.378,119.723 121.309,119.157 119.600 C 118.925 118.897,118.896 119.076,119.062 120.200 M120.806 128.033 C 120.809 128.565,120.989 129.270,121.206 129.600 C 121.482 130.022,121.523 129.785,121.342 128.800 C 121.025 127.075,120.798 126.749,120.806 128.033 M121.606 131.033 C 121.609 131.455,121.795 132.070,122.018 132.400 C 122.315 132.838,122.352 132.676,122.156 131.800 C 121.827 130.329,121.598 130.010,121.606 131.033 M122.406 134.033 C 122.409 134.565,122.589 135.270,122.806 135.600 C 123.082 136.022,123.123 135.785,122.942 134.800 C 122.625 133.075,122.398 132.749,122.406 134.033 M123.228 137.076 C 123.213 137.558,123.380 138.064,123.600 138.200 C 124.073 138.492,124.073 138.101,123.600 137.000 C 123.269 136.229,123.255 136.231,123.228 137.076 M22.200 148.400 C 22.050 148.873,22.017 149.350,22.127 149.460 C 22.237 149.570,22.450 149.273,22.600 148.800 C 22.750 148.327,22.783 147.850,22.673 147.740 C 22.563 147.630,22.350 147.927,22.200 148.400 M20.622 155.422 C 20.472 156.225,20.428 156.962,20.526 157.060 C 20.624 157.157,20.827 156.581,20.978 155.778 C 21.128 154.975,21.172 154.238,21.074 154.140 C 20.976 154.043,20.773 154.619,20.622 155.422 M19.800 159.600 C 19.648 160.291,19.607 160.941,19.709 161.042 C 19.811 161.144,20.009 160.653,20.150 159.950 C 20.483 158.283,20.160 157.960,19.800 159.600 M19.022 164.222 C 18.872 165.025,18.828 165.762,18.926 165.860 C 19.024 165.957,19.227 165.381,19.378 164.578 C 19.528 163.775,19.572 163.038,19.474 162.940 C 19.376 162.843,19.173 163.419,19.022 164.222 M133.953 165.275 C 134.548 166.842,136.783 171.200,136.991 171.200 C 137.190 171.200,134.165 164.831,133.786 164.453 C 133.657 164.323,133.731 164.693,133.953 165.275 M18.272 169.404 C 18.127 170.282,18.029 171.540,18.053 172.200 C 18.078 172.860,18.255 172.320,18.448 171.000 C 18.840 168.315,18.685 166.907,18.272 169.404 M17.471 176.402 C 17.326 177.611,17.231 179.590,17.259 180.800 C 17.297 182.381,17.407 181.874,17.648 179.000 C 18.015 174.637,17.894 172.873,17.471 176.402 M139.615 176.600 C 139.617 176.820,139.986 177.450,140.436 178.000 C 140.979 178.664,141.115 178.731,140.840 178.200 C 140.166 176.895,139.612 176.172,139.615 176.600 M16.971 194.000 C 16.971 198.950,17.028 200.975,17.099 198.500 C 17.169 196.025,17.169 191.975,17.099 189.500 C 17.028 187.025,16.971 189.050,16.971 194.000 M146.009 187.500 C 146.014 187.665,146.385 188.250,146.833 188.800 L 147.648 189.800 147.014 188.500 C 146.411 187.265,145.989 186.845,146.009 187.500 M153.986 199.380 C 154.659 200.358,155.401 201.277,155.634 201.421 C 155.868 201.565,155.399 200.765,154.592 199.642 C 152.790 197.134,152.293 196.919,153.986 199.380 M156.791 203.188 C 157.257 203.841,157.842 204.502,158.091 204.656 C 158.341 204.811,158.041 204.276,157.425 203.468 C 156.088 201.715,155.584 201.492,156.791 203.188 M17.230 207.233 C 17.246 208.645,17.405 210.610,17.584 211.600 C 17.796 212.775,17.835 211.942,17.699 209.200 C 17.463 204.485,17.184 203.316,17.230 207.233 M163.130 211.100 C 163.561 211.705,164.329 212.560,164.837 213.000 C 165.345 213.440,165.072 212.945,164.232 211.900 C 162.574 209.839,161.863 209.322,163.130 211.100 M18.047 215.833 C 18.073 216.695,18.239 217.940,18.415 218.600 C 18.618 219.356,18.654 218.838,18.515 217.200 C 18.267 214.286,17.975 213.431,18.047 215.833 M168.709 217.400 C 171.364 220.468,180.230 229.286,183.400 232.012 C 184.500 232.958,182.931 231.351,179.912 228.442 C 176.894 225.532,172.594 221.228,170.355 218.876 C 168.117 216.524,167.376 215.860,168.709 217.400 M18.868 222.400 C 18.862 222.950,19.011 223.760,19.200 224.200 L 19.544 225.000 19.532 224.200 C 19.526 223.760,19.376 222.950,19.200 222.400 L 18.880 221.400 18.868 222.400 M19.668 227.000 C 19.662 227.440,19.811 228.160,20.000 228.600 C 20.438 229.619,20.438 228.568,20.000 227.200 C 19.743 226.396,19.677 226.357,19.668 227.000 M20.480 231.000 C 20.480 231.440,20.624 232.250,20.800 232.800 C 21.054 233.592,21.120 233.633,21.120 233.000 C 21.120 232.560,20.976 231.750,20.800 231.200 C 20.546 230.408,20.480 230.367,20.480 231.000 M186.400 234.514 C 186.400 234.618,187.428 235.580,188.684 236.651 C 189.940 237.723,190.839 238.391,190.683 238.136 C 190.339 237.577,186.400 234.246,186.400 234.514 M22.012 238.400 C 22.012 238.730,22.187 239.270,22.400 239.600 C 22.745 240.133,22.788 240.133,22.788 239.600 C 22.788 239.270,22.613 238.730,22.400 238.400 C 22.055 237.867,22.012 237.867,22.012 238.400 M195.340 241.903 C 195.496 242.156,196.191 242.767,196.884 243.260 C 197.577 243.754,198.017 243.950,197.860 243.697 C 197.704 243.444,197.009 242.833,196.316 242.340 C 195.623 241.846,195.183 241.650,195.340 241.903 M198.550 244.320 C 198.710 244.578,199.669 245.360,200.682 246.057 C 203.079 247.706,202.640 246.995,200.163 245.216 C 199.116 244.465,198.391 244.061,198.550 244.320 M204.000 248.146 C 204.000 248.256,204.540 248.730,205.200 249.200 C 205.860 249.670,206.400 249.964,206.400 249.854 C 206.400 249.744,205.860 249.270,205.200 248.800 C 204.540 248.330,204.000 248.036,204.000 248.146 M209.800 252.196 C 210.694 252.939,213.228 254.309,212.600 253.710 C 212.380 253.500,211.480 252.924,210.600 252.430 C 209.720 251.935,209.360 251.830,209.800 252.196 M30.847 265.300 C 31.306 266.455,31.839 267.805,32.031 268.300 C 32.223 268.795,32.472 269.200,32.584 269.200 C 32.696 269.200,32.413 268.255,31.953 267.100 C 31.494 265.945,30.961 264.595,30.769 264.100 C 30.577 263.605,30.328 263.200,30.216 263.200 C 30.104 263.200,30.387 264.145,30.847 265.300 M232.000 264.556 C 232.000 264.770,236.218 266.847,238.123 267.571 C 238.830 267.840,239.154 267.850,238.999 267.599 C 238.864 267.379,238.572 267.200,238.351 267.200 C 238.037 267.200,233.994 265.403,232.300 264.511 C 232.135 264.424,232.000 264.444,232.000 264.556 M36.600 278.000 C 36.941 278.660,37.311 279.200,37.421 279.200 C 37.531 279.200,37.341 278.660,37.000 278.000 C 36.659 277.340,36.289 276.800,36.179 276.800 C 36.069 276.800,36.259 277.340,36.600 278.000 M264.800 277.182 C 265.130 277.405,265.745 277.591,266.167 277.594 C 267.190 277.602,266.871 277.373,265.400 277.044 C 264.524 276.848,264.362 276.885,264.800 277.182 M267.600 277.982 C 267.930 278.205,268.545 278.391,268.967 278.394 C 269.990 278.402,269.671 278.173,268.200 277.844 C 267.324 277.648,267.162 277.685,267.600 277.982 M374.400 278.032 L 373.400 278.385 374.486 278.251 C 375.083 278.177,375.635 278.306,375.713 278.538 C 375.790 278.770,375.971 278.654,376.114 278.280 C 376.401 277.531,375.989 277.472,374.400 278.032 M270.400 278.794 C 270.730 279.011,271.435 279.191,271.967 279.194 C 273.251 279.202,272.925 278.975,271.200 278.658 C 270.215 278.477,269.978 278.518,270.400 278.794 M371.400 278.800 C 370.629 279.131,370.631 279.145,371.476 279.172 C 371.958 279.187,372.464 279.020,372.600 278.800 C 372.892 278.327,372.501 278.327,371.400 278.800 M273.800 279.581 C 274.568 279.929,276.710 280.156,276.367 279.853 C 276.275 279.772,275.480 279.596,274.600 279.462 C 273.485 279.293,273.242 279.329,273.800 279.581 M367.800 279.600 C 366.711 279.877,366.693 279.907,367.600 279.925 C 368.150 279.935,368.960 279.789,369.400 279.600 C 370.386 279.176,369.466 279.176,367.800 279.600 M374.228 281.061 C 373.656 282.084,373.269 283.002,373.367 283.101 C 373.466 283.199,374.011 282.362,374.580 281.240 C 375.873 278.688,375.625 278.562,374.228 281.061 M38.200 281.200 C 38.541 281.860,38.911 282.400,39.021 282.400 C 39.131 282.400,38.941 281.860,38.600 281.200 C 38.259 280.540,37.889 280.000,37.779 280.000 C 37.669 280.000,37.859 280.540,38.200 281.200 M277.400 280.381 C 278.168 280.729,280.310 280.956,279.967 280.653 C 279.875 280.572,279.080 280.396,278.200 280.262 C 277.085 280.093,276.842 280.129,277.400 280.381 M364.400 280.400 C 363.016 280.691,363.014 280.695,364.200 280.741 C 364.860 280.767,365.670 280.613,366.000 280.400 C 366.666 279.970,366.445 279.970,364.400 280.400 M284.200 281.774 C 285.520 282.090,287.140 282.338,287.800 282.324 C 289.205 282.296,287.304 281.878,283.800 281.446 C 281.830 281.203,281.836 281.208,284.200 281.774 M358.000 281.600 C 357.450 281.776,356.370 281.965,355.600 282.020 C 354.525 282.097,354.432 282.154,355.200 282.266 C 355.750 282.347,357.370 282.154,358.800 281.838 C 360.230 281.522,360.860 281.267,360.200 281.272 C 359.540 281.276,358.550 281.424,358.000 281.600 M291.900 283.082 C 292.395 283.178,293.205 283.178,293.700 283.082 C 294.195 282.987,293.790 282.909,292.800 282.909 C 291.810 282.909,291.405 282.987,291.900 283.082 M349.905 283.083 C 350.402 283.179,351.122 283.175,351.505 283.075 C 351.887 282.975,351.480 282.896,350.600 282.901 C 349.720 282.905,349.407 282.987,349.905 283.083 M298.033 283.751 C 298.125 283.835,299.640 284.002,301.400 284.123 C 303.806 284.288,304.153 284.258,302.800 284.001 C 300.950 283.650,297.736 283.481,298.033 283.751 M340.200 284.022 C 339.189 284.216,339.778 284.251,341.800 284.116 C 343.560 283.999,345.075 283.835,345.167 283.751 C 345.444 283.500,341.911 283.692,340.200 284.022 M309.800 284.853 C 312.000 284.992,317.310 285.106,321.600 285.106 C 325.890 285.106,331.200 284.992,333.400 284.853 C 335.600 284.714,330.290 284.600,321.600 284.600 C 312.910 284.600,307.600 284.714,309.800 284.853 M371.414 286.235 C 371.041 286.804,370.805 287.338,370.889 287.422 C 370.973 287.507,371.358 287.041,371.744 286.388 C 372.606 284.928,372.348 284.809,371.414 286.235 M370.153 288.500 C 368.776 290.836,368.686 291.035,369.387 290.200 C 370.200 289.232,370.900 288.000,370.638 288.000 C 370.533 288.000,370.315 288.225,370.153 288.500 M43.786 291.100 C 44.135 291.815,44.506 292.400,44.610 292.400 C 45.008 292.400,44.752 291.763,43.967 290.800 L 43.152 289.800 43.786 291.100 M368.024 292.118 C 367.723 292.603,367.215 293.405,366.893 293.900 C 366.571 294.395,366.395 294.800,366.501 294.800 C 366.783 294.800,368.886 291.553,368.715 291.381 C 368.635 291.302,368.324 291.633,368.024 292.118 M45.807 294.400 C 46.517 295.713,52.562 304.453,52.907 304.666 C 53.110 304.792,51.700 302.578,49.773 299.747 C 46.504 294.944,45.017 292.938,45.807 294.400 M359.296 305.005 C 358.132 306.803,358.400 306.800,359.773 305.000 C 360.360 304.230,360.697 303.602,360.520 303.605 C 360.344 303.608,359.793 304.238,359.296 305.005 M56.340 309.516 C 56.833 310.209,57.444 310.904,57.697 311.060 C 57.950 311.217,57.754 310.777,57.260 310.084 C 56.767 309.391,56.156 308.696,55.903 308.540 C 55.650 308.383,55.846 308.823,56.340 309.516 M354.632 311.113 L 353.864 312.200 354.932 311.230 C 356.054 310.211,356.193 309.992,355.700 310.013 C 355.535 310.019,355.054 310.514,354.632 311.113 M351.749 314.684 C 350.677 315.940,350.009 316.839,350.264 316.683 C 350.823 316.339,354.154 312.400,353.886 312.400 C 353.782 312.400,352.820 313.428,351.749 314.684 M59.600 313.725 C 59.600 313.794,60.173 314.379,60.874 315.025 L 62.149 316.200 61.174 314.922 C 60.347 313.837,59.600 313.269,59.600 313.725 M62.403 316.699 C 62.404 316.864,63.799 318.452,65.503 320.228 C 67.206 322.003,67.870 322.633,66.978 321.628 C 66.085 320.622,64.690 319.034,63.878 318.099 C 63.065 317.163,62.401 316.533,62.403 316.699 M348.575 318.500 L 347.400 319.800 348.700 318.625 C 349.912 317.530,350.184 317.200,349.875 317.200 C 349.806 317.200,349.221 317.785,348.575 318.500 M341.600 325.701 C 339.070 328.334,334.790 332.449,332.088 334.845 C 329.387 337.240,327.292 339.200,327.434 339.200 C 327.576 339.200,329.696 337.413,332.146 335.228 C 337.154 330.762,347.199 320.770,346.594 320.856 C 346.377 320.887,344.130 323.067,341.600 325.701 M70.800 325.910 C 70.800 326.331,73.937 329.405,74.132 329.174 C 74.213 329.078,73.497 328.231,72.540 327.291 C 71.583 326.351,70.800 325.729,70.800 325.910 M77.000 331.960 C 77.949 333.063,83.200 337.761,83.200 337.506 C 83.200 337.409,81.625 335.912,79.700 334.179 C 77.775 332.447,76.560 331.448,77.000 331.960 M85.749 339.700 C 86.851 340.745,87.912 341.600,88.107 341.600 C 88.302 341.600,87.863 341.117,87.131 340.527 C 86.399 339.937,85.338 339.082,84.773 338.627 C 84.208 338.172,84.647 338.655,85.749 339.700 M325.185 340.829 L 323.800 342.058 325.300 340.981 C 326.626 340.030,327.057 339.600,326.685 339.600 C 326.622 339.600,325.947 340.153,325.185 340.829 M88.969 342.349 C 89.359 342.982,91.601 344.499,91.595 344.127 C 91.592 343.947,90.943 343.381,90.152 342.868 C 89.360 342.355,88.828 342.122,88.969 342.349 M316.000 347.642 C 312.864 349.932,312.558 350.408,315.475 348.458 C 316.837 347.548,318.062 346.623,318.199 346.402 C 318.574 345.794,318.382 345.903,316.000 347.642 M97.820 348.832 C 98.193 349.436,106.367 354.800,106.915 354.800 C 107.156 354.800,106.320 354.178,105.058 353.418 C 103.797 352.658,101.590 351.216,100.155 350.213 C 98.720 349.210,97.669 348.588,97.820 348.832 M307.995 353.054 C 305.612 354.631,304.249 355.810,306.200 354.606 C 309.475 352.583,310.815 351.600,310.295 351.600 C 310.237 351.600,309.202 352.254,307.995 353.054 M108.000 355.620 C 109.387 356.561,110.178 356.835,109.200 356.036 C 108.650 355.586,108.020 355.217,107.800 355.215 C 107.580 355.213,107.670 355.396,108.000 355.620 M303.200 356.036 C 302.536 356.579,302.469 356.715,303.000 356.440 C 304.305 355.766,305.028 355.212,304.600 355.215 C 304.380 355.217,303.750 355.586,303.200 356.036 M117.600 360.990 C 117.600 361.094,118.185 361.465,118.900 361.814 L 120.200 362.448 119.200 361.633 C 118.237 360.848,117.600 360.592,117.600 360.990 M120.800 362.579 C 120.800 362.689,121.340 363.059,122.000 363.400 C 122.660 363.741,123.200 363.931,123.200 363.821 C 123.200 363.711,122.660 363.341,122.000 363.000 C 121.340 362.659,120.800 362.469,120.800 362.579 M290.300 363.029 C 288.805 363.840,288.896 364.178,290.400 363.400 C 291.060 363.059,291.600 362.694,291.600 362.590 C 291.600 362.332,291.557 362.347,290.300 363.029 M130.800 367.389 C 130.800 367.706,133.700 368.833,133.928 368.605 C 134.041 368.492,134.035 368.400,133.916 368.400 C 133.796 368.400,133.046 368.128,132.249 367.795 C 131.452 367.462,130.800 367.279,130.800 367.389 M135.802 369.541 C 136.683 369.950,137.853 370.400,138.402 370.542 C 138.951 370.685,138.679 370.467,137.798 370.059 C 136.917 369.650,135.747 369.200,135.198 369.058 C 134.649 368.915,134.921 369.133,135.802 369.541 M275.401 369.654 C 273.221 370.538,272.406 371.083,273.998 370.592 C 275.469 370.138,278.264 368.858,277.800 368.850 C 277.580 368.847,276.501 369.208,275.401 369.654 M268.600 372.214 C 266.985 372.954,267.951 372.955,269.654 372.216 C 270.394 371.894,270.730 371.639,270.400 371.648 C 270.070 371.657,269.260 371.912,268.600 372.214 M143.633 372.544 C 143.725 372.623,144.340 372.808,145.000 372.956 C 145.876 373.152,146.038 373.115,145.600 372.818 C 145.060 372.453,143.232 372.198,143.633 372.544 M149.000 374.400 C 150.101 374.873,150.492 374.873,150.200 374.400 C 150.064 374.180,149.558 374.013,149.076 374.028 C 148.231 374.055,148.229 374.069,149.000 374.400 M151.800 375.200 C 152.901 375.673,153.292 375.673,153.000 375.200 C 152.864 374.980,152.358 374.813,151.876 374.828 C 151.031 374.855,151.029 374.869,151.800 375.200 M259.400 375.200 C 259.108 375.673,259.499 375.673,260.600 375.200 C 261.371 374.869,261.369 374.855,260.524 374.828 C 260.042 374.813,259.536 374.980,259.400 375.200 M154.600 376.000 C 155.701 376.473,156.092 376.473,155.800 376.000 C 155.664 375.780,155.158 375.613,154.676 375.628 C 153.831 375.655,153.829 375.669,154.600 376.000 M253.800 376.800 C 253.508 377.273,253.899 377.273,255.000 376.800 C 255.771 376.469,255.769 376.455,254.924 376.428 C 254.442 376.413,253.936 376.580,253.800 376.800 M160.600 377.600 C 161.701 378.073,162.092 378.073,161.800 377.600 C 161.664 377.380,161.158 377.213,160.676 377.228 C 159.831 377.255,159.829 377.269,160.600 377.600 M250.600 377.600 C 250.308 378.073,250.699 378.073,251.800 377.600 C 252.571 377.269,252.569 377.255,251.724 377.228 C 251.242 377.213,250.736 377.380,250.600 377.600 M163.800 378.400 C 164.996 378.914,165.995 378.914,165.200 378.400 C 164.870 378.187,164.240 378.022,163.800 378.034 L 163.000 378.056 163.800 378.400 M247.200 378.400 C 246.405 378.914,247.404 378.914,248.600 378.400 L 249.400 378.056 248.600 378.034 C 248.160 378.022,247.530 378.187,247.200 378.400 M167.400 379.200 C 168.596 379.714,169.595 379.714,168.800 379.200 C 168.470 378.987,167.840 378.822,167.400 378.834 L 166.600 378.856 167.400 379.200 M243.400 379.200 C 242.381 379.638,243.432 379.638,244.800 379.200 C 245.604 378.943,245.643 378.877,245.000 378.868 C 244.560 378.862,243.840 379.011,243.400 379.200 M171.600 380.000 C 172.968 380.438,174.019 380.438,173.000 380.000 C 172.560 379.811,171.840 379.662,171.400 379.668 C 170.757 379.677,170.796 379.743,171.600 380.000 M239.400 380.000 C 238.381 380.438,239.432 380.438,240.800 380.000 C 241.604 379.743,241.643 379.677,241.000 379.668 C 240.560 379.662,239.840 379.811,239.400 380.000 M176.000 380.800 C 176.550 380.976,177.360 381.126,177.800 381.132 L 178.600 381.144 177.800 380.800 C 177.360 380.611,176.550 380.462,176.000 380.468 L 175.000 380.480 176.000 380.800 M234.600 380.800 L 233.800 381.144 234.600 381.132 C 235.040 381.126,235.850 380.976,236.400 380.800 L 237.400 380.480 236.400 380.468 C 235.850 380.462,235.040 380.611,234.600 380.800 M181.800 381.600 C 182.460 381.768,183.450 381.905,184.000 381.905 C 184.892 381.905,184.870 381.872,183.800 381.600 C 183.140 381.432,182.150 381.295,181.600 381.295 C 180.708 381.295,180.730 381.328,181.800 381.600 M228.600 381.600 C 227.530 381.872,227.508 381.905,228.400 381.905 C 228.950 381.905,229.940 381.768,230.600 381.600 C 231.670 381.328,231.692 381.295,230.800 381.295 C 230.250 381.295,229.260 381.432,228.600 381.600 M188.800 382.420 C 189.790 382.597,191.230 382.732,192.000 382.720 C 193.297 382.701,193.267 382.676,191.600 382.380 C 190.610 382.203,189.170 382.068,188.400 382.080 C 187.103 382.099,187.133 382.124,188.800 382.420 M220.600 382.400 L 219.000 382.686 220.400 382.714 C 221.170 382.729,222.610 382.597,223.600 382.420 L 225.400 382.100 223.800 382.107 C 222.920 382.111,221.480 382.242,220.600 382.400 M202.321 383.099 C 204.588 383.170,208.188 383.170,210.321 383.098 C 212.455 383.026,210.600 382.968,206.200 382.968 C 201.800 382.968,200.055 383.027,202.321 383.099 " stroke="none" fill="#a17404" fill-rule="evenodd"></path><path id="path3" d="M121.766 23.655 C 121.573 23.968,121.651 24.016,122.001 23.800 C 122.413 23.545,122.471 23.808,122.274 25.038 C 122.103 26.101,122.145 26.408,122.405 26.000 C 122.896 25.230,122.909 23.715,122.428 23.417 C 122.223 23.291,121.925 23.398,121.766 23.655 M110.100 29.826 C 109.165 30.387,108.400 30.940,108.400 31.055 C 108.400 31.271,111.099 29.738,111.780 29.136 C 112.467 28.528,111.827 28.791,110.100 29.826 M120.650 31.650 C 120.317 33.317,120.640 33.640,121.000 32.000 C 121.152 31.309,121.193 30.659,121.091 30.558 C 120.989 30.456,120.791 30.947,120.650 31.650 M106.296 32.150 C 104.375 33.331,103.838 33.889,105.400 33.081 C 106.654 32.433,108.345 31.226,108.000 31.225 C 107.890 31.225,107.123 31.641,106.296 32.150 M95.407 39.422 C 94.311 40.180,93.559 40.800,93.735 40.800 C 94.118 40.800,97.600 38.440,97.600 38.181 C 97.600 37.911,97.559 37.934,95.407 39.422 M119.000 39.200 C 118.848 39.891,118.807 40.541,118.909 40.642 C 119.011 40.744,119.209 40.253,119.350 39.550 C 119.683 37.883,119.360 37.560,119.000 39.200 M118.256 43.284 C 118.121 43.788,118.027 44.560,118.046 45.000 C 118.065 45.440,118.245 45.098,118.446 44.240 C 118.836 42.578,118.670 41.740,118.256 43.284 M117.400 48.800 C 117.246 49.710,117.204 50.538,117.307 50.640 C 117.410 50.743,117.613 50.077,117.760 49.160 C 117.907 48.243,117.948 47.415,117.853 47.320 C 117.758 47.224,117.554 47.890,117.400 48.800 M82.575 49.700 L 81.400 51.000 82.700 49.825 C 83.415 49.179,84.000 48.594,84.000 48.525 C 84.000 48.216,83.670 48.488,82.575 49.700 M78.000 53.800 C 77.028 54.790,76.323 55.600,76.433 55.600 C 76.543 55.600,77.428 54.790,78.400 53.800 C 79.372 52.810,80.077 52.000,79.967 52.000 C 79.857 52.000,78.972 52.810,78.000 53.800 M116.514 57.000 C 116.517 58.100,116.595 58.503,116.687 57.895 C 116.779 57.286,116.777 56.386,116.682 55.895 C 116.587 55.403,116.511 55.900,116.514 57.000 M71.791 59.700 L 68.600 63.000 71.900 59.809 C 74.965 56.846,75.382 56.400,75.091 56.400 C 75.030 56.400,73.545 57.885,71.791 59.700 M116.101 61.400 C 116.105 62.280,116.187 62.593,116.283 62.095 C 116.379 61.598,116.375 60.878,116.275 60.495 C 116.175 60.113,116.096 60.520,116.101 61.400 M67.400 64.204 C 66.960 64.728,65.637 66.247,64.460 67.579 C 61.268 71.191,62.171 70.502,65.742 66.600 C 67.453 64.730,68.707 63.211,68.527 63.225 C 68.347 63.239,67.840 63.679,67.400 64.204 M115.737 66.200 C 115.739 67.960,115.809 68.630,115.893 67.689 C 115.978 66.749,115.977 65.309,115.891 64.489 C 115.805 63.670,115.736 64.440,115.737 66.200 M115.365 79.000 C 115.366 82.960,115.426 84.526,115.498 82.480 C 115.571 80.434,115.571 77.194,115.498 75.280 C 115.424 73.366,115.365 75.040,115.365 79.000 M58.959 74.100 C 57.207 76.121,56.687 76.800,56.890 76.800 C 57.007 76.800,57.767 75.990,58.579 75.000 C 60.081 73.166,60.379 72.463,58.959 74.100 M55.200 78.800 C 54.730 79.460,54.436 80.000,54.546 80.000 C 54.656 80.000,55.130 79.460,55.600 78.800 C 56.070 78.140,56.364 77.600,56.254 77.600 C 56.144 77.600,55.670 78.140,55.200 78.800 M52.800 82.000 C 52.330 82.660,52.036 83.200,52.146 83.200 C 52.256 83.200,52.730 82.660,53.200 82.000 C 53.670 81.340,53.964 80.800,53.854 80.800 C 53.744 80.800,53.270 81.340,52.800 82.000 M50.800 84.800 C 50.330 85.460,50.036 86.000,50.146 86.000 C 50.256 86.000,50.730 85.460,51.200 84.800 C 51.670 84.140,51.964 83.600,51.854 83.600 C 51.744 83.600,51.270 84.140,50.800 84.800 M115.734 92.000 C 115.734 93.650,115.805 94.325,115.891 93.500 C 115.978 92.675,115.978 91.325,115.891 90.500 C 115.805 89.675,115.734 90.350,115.734 92.000 M116.101 96.600 C 116.105 97.480,116.187 97.793,116.283 97.295 C 116.379 96.798,116.375 96.078,116.275 95.695 C 116.175 95.313,116.096 95.720,116.101 96.600 M42.614 97.435 C 42.241 98.004,42.005 98.538,42.089 98.622 C 42.173 98.707,42.558 98.241,42.944 97.588 C 43.806 96.128,43.548 96.009,42.614 97.435 M116.514 101.000 C 116.517 102.100,116.595 102.503,116.687 101.895 C 116.779 101.286,116.777 100.386,116.682 99.895 C 116.587 99.403,116.511 99.900,116.514 101.000 M39.200 103.600 C 38.751 104.480,38.474 105.200,38.584 105.200 C 38.694 105.200,39.151 104.480,39.600 103.600 C 40.049 102.720,40.326 102.000,40.216 102.000 C 40.106 102.000,39.649 102.720,39.200 103.600 M118.028 112.833 C 118.044 113.365,118.219 114.160,118.419 114.600 C 118.671 115.158,118.707 114.915,118.538 113.800 C 118.255 111.943,117.987 111.436,118.028 112.833 M118.856 117.400 C 118.856 117.840,119.011 118.560,119.200 119.000 L 119.544 119.800 119.544 119.000 C 119.544 118.560,119.389 117.840,119.200 117.400 L 118.856 116.600 118.856 117.400 M119.656 121.200 C 119.656 121.530,119.811 122.160,120.000 122.600 C 120.217 123.104,120.344 123.178,120.344 122.800 C 120.344 122.470,120.189 121.840,120.000 121.400 C 119.783 120.896,119.656 120.822,119.656 121.200 M120.456 124.800 C 120.456 125.130,120.611 125.760,120.800 126.200 C 121.017 126.704,121.144 126.778,121.144 126.400 C 121.144 126.070,120.989 125.440,120.800 125.000 C 120.583 124.496,120.456 124.422,120.456 124.800 M24.249 139.415 C 24.112 139.773,24.015 140.366,24.034 140.733 C 24.053 141.100,24.227 140.869,24.421 140.220 C 24.798 138.958,24.665 138.333,24.249 139.415 M23.449 142.215 C 23.312 142.573,23.215 143.166,23.234 143.533 C 23.253 143.900,23.427 143.669,23.621 143.020 C 23.998 141.758,23.865 141.133,23.449 142.215 M21.649 149.000 C 21.616 149.440,21.496 150.250,21.383 150.800 L 21.177 151.800 21.606 150.819 C 21.842 150.279,21.961 149.469,21.872 149.019 C 21.713 148.221,21.707 148.221,21.649 149.000 M130.047 155.300 C 130.506 156.455,131.039 157.805,131.231 158.300 C 131.423 158.795,131.672 159.200,131.784 159.200 C 131.896 159.200,131.613 158.255,131.153 157.100 C 130.694 155.945,130.161 154.595,129.969 154.100 C 129.777 153.605,129.528 153.200,129.416 153.200 C 129.304 153.200,129.587 154.145,130.047 155.300 M19.293 160.800 C 19.293 161.570,19.375 161.885,19.476 161.500 C 19.576 161.115,19.576 160.485,19.476 160.100 C 19.375 159.715,19.293 160.030,19.293 160.800 M132.834 161.800 C 132.834 162.020,133.178 162.830,133.600 163.600 C 134.022 164.370,134.366 164.820,134.366 164.600 C 134.366 164.380,134.022 163.570,133.600 162.800 C 133.178 162.030,132.834 161.580,132.834 161.800 M18.218 167.018 C 18.065 168.039,18.022 168.955,18.122 169.055 C 18.222 169.155,18.429 168.402,18.582 167.382 C 18.735 166.361,18.778 165.445,18.678 165.345 C 18.578 165.245,18.371 165.998,18.218 167.018 M17.400 173.600 C 17.244 174.947,17.201 176.134,17.305 176.238 C 17.409 176.342,17.619 175.322,17.771 173.971 C 17.924 172.621,17.967 171.434,17.867 171.333 C 17.766 171.233,17.556 172.253,17.400 173.600 M16.924 181.000 C 16.926 182.320,17.001 182.812,17.090 182.093 C 17.179 181.374,17.177 180.294,17.086 179.693 C 16.995 179.092,16.922 179.680,16.924 181.000 M143.560 182.600 C 144.234 183.905,144.788 184.628,144.785 184.200 C 144.783 183.980,144.414 183.350,143.964 182.800 C 143.421 182.136,143.285 182.069,143.560 182.600 M16.574 194.000 C 16.574 199.610,16.630 201.905,16.699 199.100 C 16.768 196.295,16.768 191.705,16.699 188.900 C 16.630 186.095,16.574 188.390,16.574 194.000 M146.209 187.026 C 146.581 187.701,147.241 188.691,147.676 189.226 L 148.467 190.200 147.791 188.974 C 147.419 188.299,146.759 187.309,146.324 186.774 L 145.533 185.800 146.209 187.026 M16.924 206.600 C 16.926 207.920,17.001 208.412,17.090 207.693 C 17.179 206.974,17.177 205.894,17.086 205.293 C 16.995 204.692,16.922 205.280,16.924 206.600 M159.600 206.200 C 160.117 206.750,160.606 207.200,160.688 207.200 C 161.021 207.200,159.372 205.224,159.030 205.213 C 158.827 205.206,159.083 205.650,159.600 206.200 M162.407 209.486 C 162.410 209.659,163.445 210.891,164.707 212.225 C 165.968 213.558,166.539 214.098,165.976 213.425 C 162.968 209.826,162.401 209.199,162.407 209.486 M17.273 212.200 C 17.258 212.860,17.395 214.120,17.577 215.000 C 18.013 217.106,18.050 215.214,17.620 212.800 C 17.380 211.450,17.293 211.300,17.273 212.200 M169.000 217.200 C 170.083 218.300,171.060 219.200,171.170 219.200 C 171.280 219.200,170.483 218.300,169.400 217.200 C 168.317 216.100,167.340 215.200,167.230 215.200 C 167.120 215.200,167.917 216.100,169.000 217.200 M18.095 219.200 C 18.095 219.750,18.232 220.740,18.400 221.400 C 18.672 222.470,18.705 222.492,18.705 221.600 C 18.705 221.050,18.568 220.060,18.400 219.400 C 18.128 218.330,18.095 218.308,18.095 219.200 M174.800 223.400 C 176.881 225.490,178.667 227.200,178.769 227.200 C 179.112 227.200,171.803 219.707,171.408 219.653 C 171.192 219.624,172.719 221.310,174.800 223.400 M181.400 229.600 C 182.706 230.920,183.865 232.000,183.975 232.000 C 184.085 232.000,183.106 230.920,181.800 229.600 C 180.494 228.280,179.335 227.200,179.225 227.200 C 179.115 227.200,180.094 228.280,181.400 229.600 M185.317 233.059 C 185.661 233.624,190.400 237.753,190.400 237.488 C 190.400 237.384,189.193 236.241,187.718 234.949 C 186.243 233.657,185.163 232.806,185.317 233.059 M20.828 234.833 C 20.844 235.365,21.019 236.160,21.219 236.600 C 21.471 237.158,21.507 236.915,21.338 235.800 C 21.055 233.943,20.787 233.436,20.828 234.833 M23.206 244.233 C 23.209 244.655,23.395 245.270,23.618 245.600 C 23.915 246.038,23.952 245.876,23.756 245.000 C 23.427 243.529,23.198 243.210,23.206 244.233 M24.006 247.033 C 24.009 247.455,24.195 248.070,24.418 248.400 C 24.715 248.838,24.752 248.676,24.556 247.800 C 24.227 246.329,23.998 246.010,24.006 247.033 M210.774 252.324 C 211.309 252.759,212.299 253.419,212.974 253.791 L 214.200 254.467 213.226 253.676 C 212.691 253.241,211.701 252.581,211.026 252.209 L 209.800 251.533 210.774 252.324 M218.400 256.979 C 218.400 257.089,218.940 257.459,219.600 257.800 C 220.260 258.141,220.800 258.331,220.800 258.221 C 220.800 258.111,220.260 257.741,219.600 257.400 C 218.940 257.059,218.400 256.869,218.400 256.979 M242.800 269.000 C 242.800 269.206,244.887 270.125,246.435 270.602 C 246.966 270.766,247.310 270.802,247.200 270.683 C 246.893 270.351,242.800 268.786,242.800 269.000 M374.400 277.606 C 373.978 277.882,374.203 277.921,375.162 277.737 C 376.228 277.532,376.454 277.589,376.200 277.999 C 375.984 278.349,376.032 278.427,376.345 278.234 C 376.602 278.075,376.709 277.777,376.583 277.572 C 376.284 277.089,375.162 277.106,374.400 277.606 M273.233 278.944 C 273.325 279.023,273.940 279.208,274.600 279.356 C 275.476 279.552,275.638 279.515,275.200 279.218 C 274.660 278.853,272.832 278.598,273.233 278.944 M276.833 279.744 C 276.925 279.823,277.540 280.008,278.200 280.156 C 279.076 280.352,279.238 280.315,278.800 280.018 C 278.260 279.653,276.432 279.398,276.833 279.744 M364.600 280.000 C 364.096 280.217,364.022 280.344,364.400 280.344 C 364.730 280.344,365.360 280.189,365.800 280.000 C 366.304 279.783,366.378 279.656,366.000 279.656 C 365.670 279.656,365.040 279.811,364.600 280.000 M281.200 280.800 C 282.568 281.238,283.619 281.238,282.600 280.800 C 282.160 280.611,281.440 280.462,281.000 280.468 C 280.357 280.477,280.396 280.543,281.200 280.800 M360.600 280.800 C 359.581 281.238,360.632 281.238,362.000 280.800 C 362.804 280.543,362.843 280.477,362.200 280.468 C 361.760 280.462,361.040 280.611,360.600 280.800 M38.400 282.400 C 38.849 283.280,39.306 284.000,39.416 284.000 C 39.526 284.000,39.249 283.280,38.800 282.400 C 38.351 281.520,37.894 280.800,37.784 280.800 C 37.674 280.800,37.951 281.520,38.400 282.400 M285.600 281.600 C 286.150 281.776,286.960 281.920,287.400 281.920 C 288.033 281.920,287.992 281.854,287.200 281.600 C 286.650 281.424,285.840 281.280,285.400 281.280 C 284.767 281.280,284.808 281.346,285.600 281.600 M356.200 281.600 C 355.181 282.038,356.232 282.038,357.600 281.600 C 358.404 281.343,358.443 281.277,357.800 281.268 C 357.360 281.262,356.640 281.411,356.200 281.600 M290.400 282.400 C 290.950 282.576,291.850 282.717,292.400 282.713 C 293.298 282.706,293.278 282.674,292.200 282.400 C 290.508 281.969,289.056 281.969,290.400 282.400 M351.200 282.400 C 350.408 282.654,350.367 282.720,351.000 282.720 C 351.440 282.720,352.250 282.576,352.800 282.400 C 353.592 282.146,353.633 282.080,353.000 282.080 C 352.560 282.080,351.750 282.224,351.200 282.400 M295.300 283.076 C 295.685 283.176,296.315 283.176,296.700 283.076 C 297.085 282.975,296.770 282.893,296.000 282.893 C 295.230 282.893,294.915 282.975,295.300 283.076 M298.100 283.476 C 298.485 283.576,299.115 283.576,299.500 283.476 C 299.885 283.375,299.570 283.293,298.800 283.293 C 298.030 283.293,297.715 283.375,298.100 283.476 M343.700 283.476 C 344.085 283.576,344.715 283.576,345.100 283.476 C 345.485 283.375,345.170 283.293,344.400 283.293 C 343.630 283.293,343.315 283.375,343.700 283.476 M304.200 284.000 C 306.265 284.341,310.261 284.515,309.967 284.251 C 309.875 284.169,308.090 284.004,306.000 283.885 C 303.290 283.731,302.774 283.764,304.200 284.000 M335.400 284.000 L 333.000 284.266 335.000 284.303 C 336.100 284.324,337.810 284.197,338.800 284.020 C 341.124 283.607,339.065 283.595,335.400 284.000 M39.615 284.600 C 39.617 284.820,39.986 285.450,40.436 286.000 C 40.979 286.664,41.115 286.731,40.840 286.200 C 40.166 284.895,39.612 284.172,39.615 284.600 M318.300 284.698 C 320.115 284.772,323.085 284.772,324.900 284.698 C 326.715 284.623,325.230 284.563,321.600 284.563 C 317.970 284.563,316.485 284.623,318.300 284.698 M370.200 289.200 C 369.859 289.860,369.669 290.400,369.779 290.400 C 369.889 290.400,370.259 289.860,370.600 289.200 C 370.941 288.540,371.131 288.000,371.021 288.000 C 370.911 288.000,370.541 288.540,370.200 289.200 M368.153 292.500 C 366.776 294.836,366.686 295.035,367.387 294.200 C 368.200 293.232,368.900 292.000,368.638 292.000 C 368.533 292.000,368.315 292.225,368.153 292.500 M47.999 298.373 C 48.633 299.590,51.214 303.200,51.450 303.200 C 51.620 303.200,48.147 297.998,47.711 297.600 C 47.590 297.490,47.720 297.838,47.999 298.373 M360.238 304.400 C 359.448 305.500,358.936 306.397,359.101 306.393 C 359.406 306.385,362.141 302.400,361.841 302.400 C 361.750 302.400,361.028 303.300,360.238 304.400 M53.116 305.800 C 53.344 306.240,54.191 307.320,54.998 308.200 L 56.466 309.800 54.953 307.800 C 53.051 305.286,52.591 304.785,53.116 305.800 M357.375 308.268 C 356.759 309.076,356.459 309.611,356.709 309.456 C 357.221 309.140,358.953 306.800,358.675 306.800 C 358.576 306.800,357.991 307.461,357.375 308.268 M57.600 311.600 C 58.297 312.480,58.957 313.200,59.067 313.200 C 59.177 313.200,58.697 312.480,58.000 311.600 C 57.303 310.720,56.643 310.000,56.533 310.000 C 56.423 310.000,56.903 310.720,57.600 311.600 M350.205 317.100 C 348.954 318.577,348.725 318.971,349.565 318.200 C 350.805 317.062,352.627 314.800,352.304 314.800 C 352.221 314.800,351.276 315.835,350.205 317.100 M62.434 317.447 C 62.965 318.133,63.480 318.623,63.579 318.535 C 63.677 318.447,63.243 317.886,62.613 317.288 L 61.469 316.200 62.434 317.447 M65.422 320.825 C 66.290 321.829,67.081 322.588,67.180 322.512 C 67.280 322.435,66.570 321.614,65.603 320.686 L 63.844 319.000 65.422 320.825 M342.751 325.200 C 339.996 328.060,337.870 330.400,338.026 330.400 C 338.182 330.400,340.510 328.060,343.200 325.200 C 345.890 322.340,348.016 320.000,347.925 320.000 C 347.834 320.000,345.506 322.340,342.751 325.200 M68.400 323.842 C 68.400 324.049,69.975 325.744,71.900 327.609 L 75.400 331.000 72.000 327.412 C 70.130 325.439,68.555 323.744,68.500 323.645 C 68.445 323.547,68.400 323.636,68.400 323.842 M334.786 333.100 L 332.600 335.400 334.991 333.200 C 336.306 331.990,337.461 330.955,337.557 330.900 C 337.654 330.845,337.562 330.800,337.353 330.800 C 337.144 330.800,335.989 331.835,334.786 333.100 M77.239 332.900 C 77.335 332.955,78.220 333.720,79.206 334.600 L 81.000 336.200 79.419 334.500 C 78.549 333.565,77.664 332.800,77.452 332.800 C 77.240 332.800,77.144 332.845,77.239 332.900 M330.975 336.500 L 329.800 337.800 331.100 336.625 C 331.815 335.979,332.400 335.394,332.400 335.325 C 332.400 335.016,332.070 335.288,330.975 336.500 M81.222 336.300 C 81.234 336.465,81.819 337.038,82.522 337.574 L 83.800 338.549 82.625 337.274 C 81.403 335.949,81.185 335.797,81.222 336.300 M89.069 342.909 C 91.187 344.613,91.805 344.921,90.200 343.473 C 89.320 342.680,88.451 342.023,88.269 342.015 C 88.087 342.007,88.447 342.409,89.069 342.909 M321.200 344.246 C 318.278 346.528,317.975 347.091,320.800 344.992 C 322.230 343.929,323.475 343.001,323.567 342.929 C 323.658 342.858,323.568 342.809,323.367 342.821 C 323.165 342.832,322.190 343.474,321.200 344.246 M316.100 348.040 C 315.165 348.702,314.400 349.333,314.400 349.441 C 314.400 349.550,315.210 349.081,316.200 348.400 C 317.190 347.719,318.000 347.080,318.000 346.981 C 318.000 346.705,317.924 346.748,316.100 348.040 M96.800 348.582 C 96.800 348.685,97.835 349.466,99.100 350.315 C 101.901 352.198,102.400 352.495,102.400 352.282 C 102.400 352.192,101.140 351.280,99.600 350.255 C 98.060 349.231,96.800 348.478,96.800 348.582 M312.522 350.629 L 311.400 351.658 312.700 350.754 C 313.415 350.257,314.000 349.793,314.000 349.725 C 314.000 349.409,313.558 349.680,312.522 350.629 M308.394 353.218 C 307.847 353.639,307.580 353.980,307.800 353.978 C 308.329 353.973,309.791 352.858,309.565 352.631 C 309.468 352.534,308.941 352.798,308.394 353.218 M114.000 359.564 C 114.550 360.014,115.180 360.383,115.400 360.385 C 115.828 360.388,115.105 359.834,113.800 359.160 C 113.269 358.885,113.336 359.021,114.000 359.564 M297.800 359.600 C 297.140 360.037,296.780 360.392,297.000 360.388 C 297.401 360.382,299.576 358.823,299.200 358.812 C 299.090 358.808,298.460 359.163,297.800 359.600 M117.600 361.388 C 117.600 361.498,118.680 362.134,120.000 362.800 C 121.320 363.466,122.400 363.922,122.400 363.812 C 122.400 363.702,121.320 363.066,120.000 362.400 C 118.680 361.734,117.600 361.278,117.600 361.388 M287.200 365.000 C 286.210 365.530,285.580 365.964,285.800 365.964 C 286.020 365.964,287.010 365.530,288.000 365.000 C 288.990 364.470,289.620 364.036,289.400 364.036 C 289.180 364.036,288.190 364.470,287.200 365.000 M124.454 364.987 C 124.790 365.323,127.600 366.416,127.600 366.211 C 127.600 366.101,126.948 365.738,126.151 365.405 C 124.675 364.789,124.118 364.651,124.454 364.987 M151.800 375.600 C 151.936 375.820,152.442 375.987,152.924 375.972 C 153.769 375.945,153.771 375.931,153.000 375.600 C 151.899 375.127,151.508 375.127,151.800 375.600 M256.800 376.400 C 255.976 376.664,255.941 376.726,256.600 376.754 C 257.040 376.773,257.670 376.613,258.000 376.400 C 258.701 375.947,258.214 375.947,256.800 376.400 M253.600 377.200 C 252.776 377.464,252.741 377.526,253.400 377.554 C 253.840 377.573,254.470 377.413,254.800 377.200 C 255.501 376.747,255.014 376.747,253.600 377.200 M164.000 378.782 C 164.330 379.005,164.945 379.191,165.367 379.194 C 166.390 379.202,166.071 378.973,164.600 378.644 C 163.724 378.448,163.562 378.485,164.000 378.782 M247.200 378.800 C 246.396 379.057,246.357 379.123,247.000 379.132 C 247.440 379.138,248.160 378.989,248.600 378.800 C 249.619 378.362,248.568 378.362,247.200 378.800 M167.400 379.590 C 168.164 379.928,170.714 380.157,170.367 379.856 C 170.275 379.776,169.390 379.604,168.400 379.473 C 167.198 379.314,166.866 379.353,167.400 379.590 M171.400 380.390 C 172.164 380.728,174.714 380.957,174.367 380.656 C 174.275 380.576,173.390 380.404,172.400 380.273 C 171.198 380.114,170.866 380.153,171.400 380.390 M238.100 380.676 C 238.485 380.776,239.115 380.776,239.500 380.676 C 239.885 380.575,239.570 380.493,238.800 380.493 C 238.030 380.493,237.715 380.575,238.100 380.676 M177.905 381.483 C 178.402 381.579,179.122 381.575,179.505 381.475 C 179.887 381.375,179.480 381.296,178.600 381.301 C 177.720 381.305,177.407 381.387,177.905 381.483 M232.900 381.476 C 233.285 381.576,233.915 381.576,234.300 381.476 C 234.685 381.375,234.370 381.293,233.600 381.293 C 232.830 381.293,232.515 381.375,232.900 381.476 M183.900 382.282 C 184.395 382.378,185.205 382.378,185.700 382.282 C 186.195 382.187,185.790 382.109,184.800 382.109 C 183.810 382.109,183.405 382.187,183.900 382.282 M226.700 382.282 C 227.195 382.378,228.005 382.378,228.500 382.282 C 228.995 382.187,228.590 382.109,227.600 382.109 C 226.610 382.109,226.205 382.187,226.700 382.282 M187.300 382.676 C 187.685 382.776,188.315 382.776,188.700 382.676 C 189.085 382.575,188.770 382.493,188.000 382.493 C 187.230 382.493,186.915 382.575,187.300 382.676 M223.700 382.676 C 224.085 382.776,224.715 382.776,225.100 382.676 C 225.485 382.575,225.170 382.493,224.400 382.493 C 223.630 382.493,223.315 382.575,223.700 382.676 M191.891 383.089 C 192.601 383.177,193.861 383.179,194.691 383.092 C 195.521 383.005,194.940 382.933,193.400 382.931 C 191.860 382.929,191.181 383.000,191.891 383.089 M217.300 383.091 C 218.125 383.178,219.475 383.178,220.300 383.091 C 221.125 383.005,220.450 382.934,218.800 382.934 C 217.150 382.934,216.475 383.005,217.300 383.091 M201.500 383.499 C 203.975 383.569,208.025 383.569,210.500 383.499 C 212.975 383.428,210.950 383.371,206.000 383.371 C 201.050 383.371,199.025 383.428,201.500 383.499 " stroke="none" fill="#725404" fill-rule="evenodd"></path><path id="path4" d="M69.775 62.100 L 68.600 63.400 69.900 62.225 C 71.112 61.130,71.384 60.800,71.075 60.800 C 71.006 60.800,70.421 61.385,69.775 62.100 M313.300 284.676 C 313.685 284.776,314.315 284.776,314.700 284.676 C 315.085 284.575,314.770 284.493,314.000 284.493 C 313.230 284.493,312.915 284.575,313.300 284.676 M328.500 284.676 C 328.885 284.776,329.515 284.776,329.900 284.676 C 330.285 284.575,329.970 284.493,329.200 284.493 C 328.430 284.493,328.115 284.575,328.500 284.676 M341.375 326.500 L 340.200 327.800 341.500 326.625 C 342.215 325.979,342.800 325.394,342.800 325.325 C 342.800 325.016,342.470 325.288,341.375 326.500 M196.500 383.076 C 196.885 383.176,197.515 383.176,197.900 383.076 C 198.285 382.975,197.970 382.893,197.200 382.893 C 196.430 382.893,196.115 382.975,196.500 383.076 " stroke="none" fill="#805c04" fill-rule="evenodd"></path></g></svg>